<svg width="140" height="66" viewBox="0 0 140 66" fill="none" xmlns="http://www.w3.org/2000/svg">
<path fill-rule="evenodd" clip-rule="evenodd" d="M5 40C2.23858 40 0 42.2386 0 45V61C0 63.7614 2.23857 66 5 66H135C137.761 66 140 63.7614 140 61V45C140 42.2386 137.761 40 135 40H5ZM18.6501 59.715C19.5494 60.057 20.5247 60.228 21.5761 60.228C22.6147 60.228 23.5711 60.057 24.4451 59.715C25.3317 59.373 26.0981 58.898 26.7441 58.29C27.4027 57.6693 27.9157 56.941 28.2831 56.105C28.6504 55.2563 28.8341 54.338 28.8341 53.35C28.8341 52.3493 28.6504 51.4373 28.2831 50.614C27.9157 49.778 27.4027 49.0497 26.7441 48.429C26.0981 47.8083 25.3317 47.327 24.4451 46.985C23.5711 46.643 22.6084 46.472 21.5571 46.472C20.5184 46.472 19.5557 46.643 18.6691 46.985C17.7824 47.327 17.0097 47.8083 16.3511 48.429C15.6924 49.0497 15.1794 49.778 14.8121 50.614C14.4574 51.45 14.2801 52.362 14.2801 53.35C14.2801 54.338 14.4574 55.25 14.8121 56.086C15.1794 56.922 15.6861 57.6503 16.3321 58.271C16.9907 58.8917 17.7634 59.373 18.6501 59.715ZM23.1911 57.302C22.6971 57.5047 22.1524 57.606 21.5571 57.606C20.9617 57.606 20.4107 57.5047 19.9041 57.302C19.3974 57.0993 18.9541 56.808 18.5741 56.428C18.2067 56.048 17.9154 55.5983 17.7001 55.079C17.4974 54.547 17.3961 53.9707 17.3961 53.35C17.3961 52.7167 17.4974 52.1403 17.7001 51.621C17.9154 51.1017 18.2131 50.652 18.5931 50.272C18.9731 49.892 19.4101 49.6007 19.9041 49.398C20.4107 49.1953 20.9617 49.094 21.5571 49.094C22.1524 49.094 22.7034 49.1953 23.2101 49.398C23.7167 49.6007 24.1537 49.892 24.5211 50.272C24.9011 50.652 25.1924 51.1017 25.3951 51.621C25.6104 52.1403 25.7181 52.7167 25.7181 53.35C25.7181 53.9833 25.6104 54.5597 25.3951 55.079C25.1924 55.5983 24.9011 56.048 24.5211 56.428C24.1411 56.808 23.6977 57.0993 23.1911 57.302ZM36.9043 46.7H31.1473V60H34.2253V56.333H36.9043C38.095 56.333 39.121 56.143 39.9823 55.763C40.8436 55.3703 41.5086 54.813 41.9773 54.091C42.446 53.369 42.6803 52.514 42.6803 51.526C42.6803 50.5253 42.446 49.664 41.9773 48.942C41.5086 48.22 40.8436 47.669 39.9823 47.289C39.121 46.8963 38.095 46.7 36.9043 46.7ZM34.2253 53.825H36.7333C37.6833 53.825 38.3926 53.6223 38.8613 53.217C39.33 52.8117 39.5643 52.248 39.5643 51.526C39.5643 50.7913 39.33 50.2213 38.8613 49.816C38.3926 49.4107 37.6833 49.208 36.7333 49.208H34.2253V53.825ZM47.9368 54.452V57.53H55.1758V60H44.8778V46.7H54.9288V49.17H47.9368V52.058H54.1118V54.452H47.9368ZM63.3819 46.7H57.6249V60H60.7029V56.295H63.3819C63.4304 56.295 63.4786 56.2947 63.5265 56.2941L66.0798 60H69.4049L66.4338 55.7364C66.4425 55.7326 66.4512 55.7288 66.4599 55.725C67.3212 55.345 67.9862 54.8003 68.4548 54.091C68.9235 53.369 69.1579 52.514 69.1579 51.526C69.1579 50.5253 68.9235 49.664 68.4548 48.942C67.9862 48.22 67.3212 47.669 66.4599 47.289C65.5985 46.8963 64.5725 46.7 63.3819 46.7ZM60.7029 53.844H63.2108C64.1609 53.844 64.8702 53.6413 65.3389 53.236C65.8075 52.818 66.0419 52.248 66.0419 51.526C66.0419 50.7913 65.8075 50.2213 65.3389 49.816C64.8702 49.4107 64.1609 49.208 63.2108 49.208H60.7029V53.844ZM78.8165 46.7H75.7765L69.8485 60H73.0025L74.1877 57.15H80.353L81.5335 60H84.7635L78.8165 46.7ZM79.3849 54.813L77.2763 49.7229L75.1596 54.813H79.3849ZM88.2304 49.208V60H91.3084V49.208H95.5644V46.7H83.9744V49.208H88.2304ZM100.569 59.715C101.468 60.057 102.444 60.228 103.495 60.228C104.534 60.228 105.49 60.057 106.364 59.715C107.251 59.373 108.017 58.898 108.663 58.29C109.322 57.6693 109.835 56.941 110.202 56.105C110.569 55.2563 110.753 54.338 110.753 53.35C110.753 52.3493 110.569 51.4373 110.202 50.614C109.835 49.778 109.322 49.0497 108.663 48.429C108.017 47.8083 107.251 47.327 106.364 46.985C105.49 46.643 104.527 46.472 103.476 46.472C102.437 46.472 101.475 46.643 100.588 46.985C99.7013 47.327 98.9287 47.8083 98.27 48.429C97.6113 49.0497 97.0983 49.778 96.731 50.614C96.3763 51.45 96.199 52.362 96.199 53.35C96.199 54.338 96.3763 55.25 96.731 56.086C97.0983 56.922 97.605 57.6503 98.251 58.271C98.9097 58.8917 99.6823 59.373 100.569 59.715ZM105.11 57.302C104.616 57.5047 104.071 57.606 103.476 57.606C102.881 57.606 102.33 57.5047 101.823 57.302C101.316 57.0993 100.873 56.808 100.493 56.428C100.126 56.048 99.8343 55.5983 99.619 55.079C99.4163 54.547 99.315 53.9707 99.315 53.35C99.315 52.7167 99.4163 52.1403 99.619 51.621C99.8343 51.1017 100.132 50.652 100.512 50.272C100.892 49.892 101.329 49.6007 101.823 49.398C102.33 49.1953 102.881 49.094 103.476 49.094C104.071 49.094 104.622 49.1953 105.129 49.398C105.636 49.6007 106.073 49.892 106.44 50.272C106.82 50.652 107.111 51.1017 107.314 51.621C107.529 52.1403 107.637 52.7167 107.637 53.35C107.637 53.9833 107.529 54.5597 107.314 55.079C107.111 55.5983 106.82 56.048 106.44 56.428C106.06 56.808 105.617 57.0993 105.11 57.302ZM118.823 46.7H113.066V60H116.144V56.295H118.823C118.872 56.295 118.92 56.2947 118.968 56.2941L121.521 60H124.846L121.875 55.7364C121.884 55.7326 121.893 55.7288 121.901 55.725C122.763 55.345 123.428 54.8003 123.896 54.091C124.365 53.369 124.599 52.514 124.599 51.526C124.599 50.5253 124.365 49.664 123.896 48.942C123.428 48.22 122.763 47.669 121.901 47.289C121.04 46.8963 120.014 46.7 118.823 46.7ZM116.144 53.844H118.652C119.602 53.844 120.312 53.6413 120.78 53.236C121.249 52.818 121.483 52.248 121.483 51.526C121.483 50.7913 121.249 50.2213 120.78 49.816C120.312 49.4107 119.602 49.208 118.652 49.208H116.144V53.844Z" fill="#1782FF"/>
<path d="M105.229 0C106.262 0 107.099 0.837825 107.099 1.87133V29.5439C107.099 29.6085 107.046 29.6608 106.982 29.6608H104.439C103.406 29.6608 102.569 28.823 102.569 27.7895V0.116958C102.569 0.052364 102.621 0 102.686 0H105.229Z" fill="black"/>
<path d="M19.3176 14.8689C19.9798 13.6229 20.3109 12.2974 20.3109 10.8923C20.3109 9.35472 19.9401 7.26116 19.1984 6.01516C18.4832 4.76917 17.3838 3.78827 15.9004 3.07249C14.4435 2.33019 12.6554 1.95905 10.5363 1.95905H1.11687C1.05232 1.95905 1 2.01141 1 2.076V5.77423C1 5.83882 1.05232 5.89119 1.11687 5.89119H10.5363C13.9534 5.89119 15.662 7.87012 15.662 10.8923C15.662 12.3239 15.2382 13.2034 14.3905 13.9987C13.5428 14.7675 12.2581 15.3859 10.5363 15.3859H5.64659C5.58205 15.3859 5.52973 15.3335 5.52973 15.2689V6.37956C5.52973 6.30633 5.46324 6.25111 5.39132 6.26461L2.52526 6.80242C1.64087 6.96837 1 7.74119 1 8.6417V29.6867C1 29.7608 1.06798 29.8162 1.14049 29.8012L4.03784 29.2027C4.90654 29.0233 5.52973 28.2577 5.52973 27.37V19.6689C5.52973 19.6043 5.58205 19.5519 5.64659 19.5519H10.5363C13.1504 19.5519 14.9034 18.9533 16.3058 18.0176C17.7082 17.082 18.6553 16.1149 19.3176 14.8689Z" fill="black"/>
<path d="M53.2387 10.4414C53.2387 10.5603 53.3996 10.6059 53.4657 10.5072C54.0965 9.56607 54.895 8.82428 55.8612 8.28182C56.9449 7.66205 58.2172 7.34413 59.678 7.32808C59.7425 7.32737 59.7949 7.3798 59.7949 7.4444V11.9028C59.7949 11.9674 59.7426 12.0198 59.678 12.0198H58.6426C56.8678 12.0198 55.5168 12.4705 54.5897 13.3718C53.6891 14.2732 53.2387 15.8373 53.2387 18.0642V29.9476C53.2387 30.0121 53.1864 30.0645 53.1219 30.0645H48.8259C48.7613 30.0645 48.709 30.0121 48.709 29.9476V7.80229C48.709 7.73769 48.7613 7.68533 48.8259 7.68533H53.1219C53.1864 7.68533 53.2387 7.73769 53.2387 7.80229V10.4414Z" fill="black"/>
<path fill-rule="evenodd" clip-rule="evenodd" d="M132.232 17.9802C132.232 18.7615 132.184 19.471 132.089 20.1086C132.08 20.1654 132.031 20.2071 131.974 20.2071H115.471C115.403 20.2071 115.349 20.2652 115.356 20.333C115.509 22.0243 116.155 23.3874 117.292 24.4223C118.458 25.4827 119.888 26.0129 121.583 26.0129C123.994 26.0129 125.705 25.014 126.716 23.0163C126.736 22.9766 126.777 22.9509 126.822 22.9509H131.475C131.554 22.9509 131.611 23.0288 131.585 23.1041C130.912 25.0499 129.724 26.6557 128.02 27.9217C126.299 29.1942 124.153 29.8304 121.583 29.8304C119.491 29.8304 117.61 29.3665 115.941 28.4386C114.299 27.4842 113.001 26.1587 112.047 24.462C111.12 22.7388 110.657 20.7505 110.657 18.4971C110.657 16.2437 111.107 14.2687 112.007 12.572C112.935 10.8488 114.219 9.52332 115.862 8.59545C117.531 7.66758 119.438 7.20364 121.583 7.20364C123.65 7.20364 125.491 7.65432 127.107 8.55568C128.722 9.45704 129.981 10.7295 130.881 12.3732C131.782 13.9904 132.232 15.8593 132.232 17.9802ZM127.385 16.5486C127.45 16.5486 127.503 16.4949 127.501 16.4297C127.449 14.8148 126.854 13.5156 125.716 12.5323C124.55 11.5249 123.107 11.0212 121.385 11.0212C119.822 11.0212 118.484 11.5249 117.372 12.5323C116.288 13.4877 115.632 14.7826 115.402 16.4172C115.393 16.4868 115.447 16.5486 115.517 16.5486H127.385Z" fill="black"/>
<path d="M139.883 29.8304C139.948 29.8304 140 29.7781 140 29.7135V2.04092C140 1.00741 139.163 0.169584 138.13 0.169584H135.587C135.523 0.169584 135.47 0.221948 135.47 0.286543V27.9591C135.47 28.9926 136.307 29.8304 137.34 29.8304H139.883Z" fill="black"/>
<path fill-rule="evenodd" clip-rule="evenodd" d="M33.2514 30.0643C35.6749 30.0643 37.9131 29.2364 39.7206 27.8366C39.7984 27.7764 39.9127 27.8312 39.9127 27.9296V29.9474C39.9127 30.012 39.9651 30.0643 40.0296 30.0643H44.4705C44.5351 30.0643 44.5874 30.012 44.5874 29.9474V7.49136C44.5874 7.42677 44.5351 7.3744 44.4705 7.3744H40.0296C39.9651 7.3744 39.9127 7.42677 39.9127 7.49136V9.50911C39.9127 9.60751 39.7984 9.66234 39.7206 9.60212C37.9131 8.20238 35.6749 7.3744 33.2514 7.3744C27.2488 7.3744 22.3828 12.4537 22.3828 18.7194C22.3828 24.985 27.2488 30.0643 33.2514 30.0643ZM33.4851 25.6199C37.2932 25.6199 40.1465 22.5304 40.1465 18.7194C40.1465 14.9083 37.2932 11.8188 33.4851 11.8188C29.677 11.8188 26.8237 14.9083 26.8237 18.7194C26.8237 22.5304 29.677 25.6199 33.4851 25.6199Z" fill="black"/>
<path fill-rule="evenodd" clip-rule="evenodd" d="M87.0509 30.0643C89.4744 30.0643 91.7126 29.2364 93.5201 27.8366C93.5979 27.7764 93.7122 27.8312 93.7122 27.9296V29.9474C93.7122 30.012 93.7646 30.0643 93.8291 30.0643H98.27C98.3346 30.0643 98.3869 30.012 98.3869 29.9474V7.49136C98.3869 7.42677 98.3346 7.3744 98.27 7.3744H93.8291C93.7646 7.3744 93.7122 7.42677 93.7122 7.49136V9.50911C93.7122 9.60751 93.5979 9.66234 93.5201 9.60212C91.7126 8.20238 89.4744 7.3744 87.0509 7.3744C81.0484 7.3744 76.1824 12.4537 76.1824 18.7194C76.1824 24.985 81.0484 30.0643 87.0509 30.0643ZM87.2846 25.6199C91.0927 25.6199 94.1797 22.5304 94.1797 18.7194C94.1797 14.9083 91.0927 11.8188 87.2846 11.8188C83.4766 11.8188 80.6233 14.9083 80.6233 18.7194C80.6233 22.5304 83.4766 25.6199 87.2846 25.6199Z" fill="black"/>
<path d="M68.4438 10.6047C68.4438 10.7236 68.6046 10.7692 68.6708 10.6705C69.3016 9.72935 70.1001 8.98756 71.0663 8.4451C72.15 7.82533 73.4223 7.50742 74.8831 7.49136C74.9476 7.49065 75 7.54309 75 7.60768V12.0661C75 12.1307 74.9477 12.1831 74.8831 12.1831H73.8477C72.0729 12.1831 70.7219 12.6338 69.7948 13.5351C68.8941 14.4365 68.4438 16.0006 68.4438 18.2275V30.1108C68.4438 30.1754 68.3915 30.2278 68.327 30.2278H64.031C63.9664 30.2278 63.9141 30.1754 63.9141 30.1108V7.96557C63.9141 7.90098 63.9664 7.84861 64.031 7.84861H68.327C68.3915 7.84861 68.4438 7.90098 68.4438 7.96557V10.6047Z" fill="black"/>
</svg>
