<svg width="140" height="67" viewBox="0 0 140 67" fill="none" xmlns="http://www.w3.org/2000/svg">
<path fill-rule="evenodd" clip-rule="evenodd" d="M5 41C2.23858 41 0 43.2386 0 46V62C0 64.7614 2.23857 67 5 67H135C137.761 67 140 64.7614 140 62V46C140 43.2386 137.761 41 135 41H5ZM18.6501 60.715C19.5494 61.057 20.5247 61.228 21.5761 61.228C22.6147 61.228 23.5711 61.057 24.4451 60.715C25.3317 60.373 26.0981 59.898 26.7441 59.29C27.4027 58.6693 27.9157 57.941 28.2831 57.105C28.6504 56.2563 28.8341 55.338 28.8341 54.35C28.8341 53.3493 28.6504 52.4373 28.2831 51.614C27.9157 50.778 27.4027 50.0497 26.7441 49.429C26.0981 48.8083 25.3317 48.327 24.4451 47.985C23.5711 47.643 22.6084 47.472 21.5571 47.472C20.5184 47.472 19.5557 47.643 18.6691 47.985C17.7824 48.327 17.0097 48.8083 16.3511 49.429C15.6924 50.0497 15.1794 50.778 14.8121 51.614C14.4574 52.45 14.2801 53.362 14.2801 54.35C14.2801 55.338 14.4574 56.25 14.8121 57.086C15.1794 57.922 15.6861 58.6503 16.3321 59.271C16.9907 59.8917 17.7634 60.373 18.6501 60.715ZM23.1911 58.302C22.6971 58.5047 22.1524 58.606 21.5571 58.606C20.9617 58.606 20.4107 58.5047 19.9041 58.302C19.3974 58.0993 18.9541 57.808 18.5741 57.428C18.2067 57.048 17.9154 56.5983 17.7001 56.079C17.4974 55.547 17.3961 54.9707 17.3961 54.35C17.3961 53.7167 17.4974 53.1403 17.7001 52.621C17.9154 52.1017 18.2131 51.652 18.5931 51.272C18.9731 50.892 19.4101 50.6007 19.9041 50.398C20.4107 50.1953 20.9617 50.094 21.5571 50.094C22.1524 50.094 22.7034 50.1953 23.2101 50.398C23.7167 50.6007 24.1537 50.892 24.5211 51.272C24.9011 51.652 25.1924 52.1017 25.3951 52.621C25.6104 53.1403 25.7181 53.7167 25.7181 54.35C25.7181 54.9833 25.6104 55.5597 25.3951 56.079C25.1924 56.5983 24.9011 57.048 24.5211 57.428C24.1411 57.808 23.6977 58.0993 23.1911 58.302ZM36.9043 47.7H31.1473V61H34.2253V57.333H36.9043C38.095 57.333 39.121 57.143 39.9823 56.763C40.8436 56.3703 41.5086 55.813 41.9773 55.091C42.446 54.369 42.6803 53.514 42.6803 52.526C42.6803 51.5253 42.446 50.664 41.9773 49.942C41.5086 49.22 40.8436 48.669 39.9823 48.289C39.121 47.8963 38.095 47.7 36.9043 47.7ZM34.2253 54.825H36.7333C37.6833 54.825 38.3926 54.6223 38.8613 54.217C39.33 53.8117 39.5643 53.248 39.5643 52.526C39.5643 51.7913 39.33 51.2213 38.8613 50.816C38.3926 50.4107 37.6833 50.208 36.7333 50.208H34.2253V54.825ZM47.9368 55.452V58.53H55.1758V61H44.8778V47.7H54.9288V50.17H47.9368V53.058H54.1118V55.452H47.9368ZM63.3819 47.7H57.6249V61H60.7029V57.295H63.3819C63.4304 57.295 63.4786 57.2947 63.5265 57.2941L66.0798 61H69.4049L66.4338 56.7364C66.4425 56.7326 66.4512 56.7288 66.4599 56.725C67.3212 56.345 67.9862 55.8003 68.4548 55.091C68.9235 54.369 69.1579 53.514 69.1579 52.526C69.1579 51.5253 68.9235 50.664 68.4548 49.942C67.9862 49.22 67.3212 48.669 66.4599 48.289C65.5985 47.8963 64.5725 47.7 63.3819 47.7ZM60.7029 54.844H63.2108C64.1609 54.844 64.8702 54.6413 65.3389 54.236C65.8075 53.818 66.0419 53.248 66.0419 52.526C66.0419 51.7913 65.8075 51.2213 65.3389 50.816C64.8702 50.4107 64.1609 50.208 63.2108 50.208H60.7029V54.844ZM78.8165 47.7H75.7765L69.8485 61H73.0025L74.1877 58.15H80.353L81.5335 61H84.7635L78.8165 47.7ZM79.3849 55.813L77.2763 50.7229L75.1596 55.813H79.3849ZM88.2304 50.208V61H91.3084V50.208H95.5644V47.7H83.9744V50.208H88.2304ZM100.569 60.715C101.468 61.057 102.444 61.228 103.495 61.228C104.534 61.228 105.49 61.057 106.364 60.715C107.251 60.373 108.017 59.898 108.663 59.29C109.322 58.6693 109.835 57.941 110.202 57.105C110.569 56.2563 110.753 55.338 110.753 54.35C110.753 53.3493 110.569 52.4373 110.202 51.614C109.835 50.778 109.322 50.0497 108.663 49.429C108.017 48.8083 107.251 48.327 106.364 47.985C105.49 47.643 104.527 47.472 103.476 47.472C102.437 47.472 101.475 47.643 100.588 47.985C99.7013 48.327 98.9287 48.8083 98.27 49.429C97.6113 50.0497 97.0983 50.778 96.731 51.614C96.3763 52.45 96.199 53.362 96.199 54.35C96.199 55.338 96.3763 56.25 96.731 57.086C97.0983 57.922 97.605 58.6503 98.251 59.271C98.9097 59.8917 99.6823 60.373 100.569 60.715ZM105.11 58.302C104.616 58.5047 104.071 58.606 103.476 58.606C102.881 58.606 102.33 58.5047 101.823 58.302C101.316 58.0993 100.873 57.808 100.493 57.428C100.126 57.048 99.8343 56.5983 99.619 56.079C99.4163 55.547 99.315 54.9707 99.315 54.35C99.315 53.7167 99.4163 53.1403 99.619 52.621C99.8343 52.1017 100.132 51.652 100.512 51.272C100.892 50.892 101.329 50.6007 101.823 50.398C102.33 50.1953 102.881 50.094 103.476 50.094C104.071 50.094 104.622 50.1953 105.129 50.398C105.636 50.6007 106.073 50.892 106.44 51.272C106.82 51.652 107.111 52.1017 107.314 52.621C107.529 53.1403 107.637 53.7167 107.637 54.35C107.637 54.9833 107.529 55.5597 107.314 56.079C107.111 56.5983 106.82 57.048 106.44 57.428C106.06 57.808 105.617 58.0993 105.11 58.302ZM118.823 47.7H113.066V61H116.144V57.295H118.823C118.872 57.295 118.92 57.2947 118.968 57.2941L121.521 61H124.846L121.875 56.7364C121.884 56.7326 121.893 56.7288 121.901 56.725C122.763 56.345 123.428 55.8003 123.896 55.091C124.365 54.369 124.599 53.514 124.599 52.526C124.599 51.5253 124.365 50.664 123.896 49.942C123.428 49.22 122.763 48.669 121.901 48.289C121.04 47.8963 120.014 47.7 118.823 47.7ZM116.144 54.844H118.652C119.602 54.844 120.312 54.6413 120.78 54.236C121.249 53.818 121.483 53.248 121.483 52.526C121.483 51.7913 121.249 51.2213 120.78 50.816C120.312 50.4107 119.602 50.208 118.652 50.208H116.144V54.844Z" fill="#1782FF"/>
<path d="M92.2289 0C93.2616 0 94.0988 0.837825 94.0988 1.87133V29.5439C94.0988 29.6085 94.0465 29.6608 93.9819 29.6608H91.4389C90.4062 29.6608 89.5691 28.823 89.5691 27.7895V0.116958C89.5691 0.0523641 89.6214 0 89.6859 0H92.2289Z" fill="black"/>
<path d="M21.3176 15.8689C21.9798 14.6229 22.3109 13.2974 22.3109 11.8923C22.3109 10.3547 21.9401 8.26116 21.1984 7.01516C20.4832 5.76917 19.3838 4.78828 17.9004 4.07249C16.4435 3.33019 14.6554 2.95905 12.5363 2.95905H3.11687C3.05232 2.95905 3 3.01141 3 3.076V6.77423C3 6.83882 3.05232 6.89119 3.11687 6.89119H12.5363C15.9534 6.89119 17.662 8.87012 17.662 11.8923C17.662 13.3239 17.2382 14.2034 16.3905 14.9987C15.5428 15.7675 14.2581 16.3859 12.5363 16.3859H7.64659C7.58205 16.3859 7.52973 16.3335 7.52973 16.2689V7.37956C7.52973 7.30633 7.46325 7.25111 7.39132 7.26461L4.52526 7.80242C3.64087 7.96837 3 8.74119 3 9.6417V30.6867C3 30.7608 3.06798 30.8162 3.14049 30.8012L6.03784 30.2027C6.90654 30.0233 7.52973 29.2577 7.52973 28.37V20.6689C7.52973 20.6043 7.58205 20.5519 7.64659 20.5519H12.5363C15.1504 20.5519 16.9034 19.9533 18.3058 19.0176C19.7082 18.082 20.6553 17.1149 21.3176 15.8689Z" fill="black"/>
<path d="M55.2387 11.4414C55.2387 11.5603 55.3996 11.6059 55.4657 11.5072C56.0965 10.5661 56.895 9.82428 57.8612 9.28182C58.9449 8.66205 60.2172 8.34413 61.678 8.32808C61.7425 8.32737 61.7949 8.3798 61.7949 8.4444V12.9028C61.7949 12.9674 61.7426 13.0198 61.678 13.0198H60.6426C58.8678 13.0198 57.5168 13.4705 56.5897 14.3718C55.6891 15.2732 55.2387 16.8373 55.2387 19.0642V30.9476C55.2387 31.0122 55.1864 31.0645 55.1219 31.0645H50.8259C50.7613 31.0645 50.709 31.0122 50.709 30.9476V8.80229C50.709 8.73769 50.7613 8.68533 50.8259 8.68533H55.1219C55.1864 8.68533 55.2387 8.73769 55.2387 8.80229V11.4414Z" fill="black"/>
<path d="M103.033 32C103.098 32 103.15 31.9476 103.15 31.883V4.2105C103.15 3.17699 102.313 2.33917 101.28 2.33917H98.737C98.6725 2.33917 98.6201 2.39153 98.6201 2.45613V30.1287C98.6201 31.1622 99.4573 32 100.49 32H103.033Z" fill="black"/>
<path fill-rule="evenodd" clip-rule="evenodd" d="M128.232 18.9802C128.232 19.7615 128.184 20.471 128.089 21.1086C128.08 21.1654 128.031 21.2071 127.974 21.2071H111.471C111.403 21.2071 111.349 21.2652 111.356 21.333C111.509 23.0243 112.155 24.3874 113.292 25.4223C114.458 26.4827 115.888 27.0129 117.583 27.0129C119.994 27.0129 121.705 26.014 122.716 24.0163C122.736 23.9766 122.777 23.9509 122.822 23.9509H127.475C127.554 23.9509 127.611 24.0288 127.585 24.1041C126.912 26.0499 125.724 27.6557 124.02 28.9217C122.299 30.1942 120.153 30.8304 117.583 30.8304C115.491 30.8304 113.61 30.3665 111.941 29.4386C110.299 28.4842 109.001 27.1587 108.047 25.462C107.12 23.7388 106.657 21.7505 106.657 19.4971C106.657 17.2437 107.107 15.2687 108.007 13.572C108.935 11.8488 110.219 10.5233 111.862 9.59545C113.531 8.66758 115.438 8.20364 117.583 8.20364C119.65 8.20364 121.491 8.65432 123.107 9.55568C124.722 10.457 125.981 11.7295 126.881 13.3732C127.782 14.9904 128.232 16.8593 128.232 18.9802ZM123.385 17.5486C123.45 17.5486 123.503 17.4949 123.501 17.4297C123.449 15.8148 122.854 14.5156 121.716 13.5323C120.55 12.5249 119.107 12.0212 117.385 12.0212C115.822 12.0212 114.484 12.5249 113.372 13.5323C112.288 14.4877 111.632 15.7827 111.402 17.4172C111.393 17.4868 111.447 17.5486 111.517 17.5486H123.385Z" fill="black"/>
<path d="M135.883 30.8304C135.948 30.8304 136 30.7781 136 30.7135V3.04092C136 2.00741 135.163 1.16958 134.13 1.16958H131.587C131.523 1.16958 131.47 1.22195 131.47 1.28654V28.9591C131.47 29.9926 132.307 30.8304 133.34 30.8304H135.883Z" fill="black"/>
<path fill-rule="evenodd" clip-rule="evenodd" d="M35.2514 31.0643C37.6749 31.0643 39.9131 30.2364 41.7206 28.8366C41.7984 28.7764 41.9127 28.8312 41.9127 28.9296V30.9474C41.9127 31.012 41.9651 31.0643 42.0296 31.0643H46.4705C46.5351 31.0643 46.5874 31.012 46.5874 30.9474V8.49136C46.5874 8.42677 46.5351 8.3744 46.4705 8.3744H42.0296C41.9651 8.3744 41.9127 8.42677 41.9127 8.49136V10.5091C41.9127 10.6075 41.7984 10.6623 41.7206 10.6021C39.9131 9.20238 37.6749 8.3744 35.2514 8.3744C29.2488 8.3744 24.3828 13.4537 24.3828 19.7194C24.3828 25.985 29.2488 31.0643 35.2514 31.0643ZM35.4851 26.6199C39.2932 26.6199 42.1465 23.5304 42.1465 19.7194C42.1465 15.9083 39.2932 12.8188 35.4851 12.8188C31.677 12.8188 28.8237 15.9083 28.8237 19.7194C28.8237 23.5304 31.677 26.6199 35.4851 26.6199Z" fill="black"/>
<path fill-rule="evenodd" clip-rule="evenodd" d="M74.0509 31.0643C76.4744 31.0643 78.7126 30.2364 80.5201 28.8366C80.5979 28.7764 80.7123 28.8312 80.7123 28.9296V30.9474C80.7123 31.012 80.7646 31.0643 80.8291 31.0643H85.27C85.3346 31.0643 85.3869 31.012 85.3869 30.9474V8.49136C85.3869 8.42677 85.3346 8.3744 85.27 8.3744H80.8291C80.7646 8.3744 80.7123 8.42677 80.7123 8.49136V10.5091C80.7123 10.6075 80.5979 10.6623 80.5201 10.6021C78.7126 9.20238 76.4744 8.3744 74.0509 8.3744C68.0484 8.3744 63.1823 13.4537 63.1823 19.7194C63.1823 25.985 68.0484 31.0643 74.0509 31.0643ZM74.2846 26.6199C78.0927 26.6199 81.1797 23.5304 81.1797 19.7194C81.1797 15.9083 78.0927 12.8188 74.2846 12.8188C70.4766 12.8188 67.6233 15.9083 67.6233 19.7194C67.6233 23.5304 70.4766 26.6199 74.2846 26.6199Z" fill="black"/>
</svg>
