<svg width="11" height="11" viewBox="0 0 11 11" fill="none" xmlns="http://www.w3.org/2000/svg">
<g clip-path="url(#clip0_1_11723)">
<path fill-rule="evenodd" clip-rule="evenodd" d="M5.5 10C7.98528 10 10 7.98528 10 5.5C10 3.01472 7.98528 1 5.5 1C3.01472 1 1 3.01472 1 5.5C1 7.98528 3.01472 10 5.5 10ZM5.5 11C8.53757 11 11 8.53757 11 5.5C11 2.46243 8.53757 0 5.5 0C2.46243 0 0 2.46243 0 5.5C0 8.53757 2.46243 11 5.5 11Z" fill="#8A8B8B"/>
<path d="M7.46432 4.71429C7.46432 5.79913 6.58488 6.67857 5.50003 6.67857C4.41519 6.67857 3.53575 5.79913 3.53575 4.71429C3.53575 3.62944 4.41519 2.75 5.50003 2.75C6.58488 2.75 7.46432 3.62944 7.46432 4.71429Z" fill="white"/>
<path d="M7.46432 4.71429C7.46432 5.79913 6.58488 6.67857 5.50003 6.67857C4.41519 6.67857 3.53575 5.79913 3.53575 4.71429C3.53575 3.62944 4.41519 2.75 5.50003 2.75C6.58488 2.75 7.46432 3.62944 7.46432 4.71429Z" fill="#8A8B8B"/>
<path d="M9.03568 9.03568C9.03568 9.90356 7.45269 10.6071 5.49997 10.6071C3.54725 10.6071 1.96425 9.90356 1.96425 9.03568C1.96425 8.16781 3.54725 7.46425 5.49997 7.46425C7.45269 7.46425 9.03568 8.16781 9.03568 9.03568Z" fill="white"/>
<path d="M9.03568 9.03568C9.03568 9.90356 7.45269 10.6071 5.49997 10.6071C3.54725 10.6071 1.96425 9.90356 1.96425 9.03568C1.96425 8.16781 3.54725 7.46425 5.49997 7.46425C7.45269 7.46425 9.03568 8.16781 9.03568 9.03568Z" fill="#8A8B8B"/>
</g>
<defs>
<clipPath id="clip0_1_11723">
<rect width="11" height="11" fill="white"/>
</clipPath>
</defs>
</svg>
