<svg width="11" height="11" viewBox="0 0 11 11" fill="none" xmlns="http://www.w3.org/2000/svg">
<path fill-rule="evenodd" clip-rule="evenodd" d="M1.81907 9.58672C1.88622 9.64724 1.99119 9.59089 1.98418 9.50076C1.97295 9.35611 1.96623 9.20135 1.96423 9.03578C1.96423 8.16791 3.54723 7.46436 5.49995 7.46436C7.45267 7.46436 9.03566 8.16791 9.03566 9.03578C9.03326 9.20115 9.02406 9.35542 9.00838 9.49934C8.99831 9.59175 9.10658 9.65356 9.17571 9.59142C10.2957 8.58459 11 7.12455 11 5.5C11 2.46243 8.53757 0 5.5 0C2.46243 0 0 2.46243 0 5.5C0 7.12202 0.702144 8.58005 1.81907 9.58672ZM7.46434 4.71429C7.46434 5.79913 6.5849 6.67857 5.50005 6.67857C4.41521 6.67857 3.53577 5.79913 3.53577 4.71429C3.53577 3.62944 4.41521 2.75 5.50005 2.75C6.5849 2.75 7.46434 3.62944 7.46434 4.71429Z" fill="#1782FF"/>
</svg>
