<svg width="11" height="11" viewBox="0 0 11 11" fill="none" xmlns="http://www.w3.org/2000/svg">
<g clip-path="url(#clip0_1_11737)">
<path fill-rule="evenodd" clip-rule="evenodd" d="M5.99875 1.94919C5.97275 1.42095 5.53523 1 5 1C4.46477 1 4.02725 1.42095 4.00125 1.94919C3.97388 2.50495 3.51979 3 2.9 3H1.01465C1.00962 3 1.0046 3.00216 1.00268 3.00681C1.00146 3.00975 1 3.01455 1 3.02274V4.78641C1 4.84164 1.04484 4.88615 1.1 4.88887C2.177 4.94184 3 5.84599 3 6.90915C3 7.97229 2.17698 8.87643 1.1 8.9294C1.04484 8.93212 1 8.97663 1 9.03185V9.97726C1 9.98545 1.00146 9.99025 1.00268 9.99319C1.0046 9.99784 1.00962 10 1.01465 10H7.98535C7.99038 10 7.9954 9.99784 7.99732 9.99319C7.99854 9.99025 8 9.98545 8 9.97726V9.1C8 8.48022 8.49504 8.02612 9.05081 7.99875C9.57905 7.97275 10 7.53524 10 7C10 6.46476 9.57905 6.02725 9.05081 6.00125C8.49505 5.97388 8 5.51979 8 4.9V3.02272C8 3.01455 7.99854 3.00975 7.99732 3.0068C7.9954 3.00216 7.99038 3 7.98536 3H7.1C6.48021 3 6.02612 2.50495 5.99875 1.94919ZM6.99754 1.90001C6.94545 0.841897 6.07104 0 5 0C3.92896 0 3.05455 0.841897 3.00246 1.90001C2.99974 1.95518 2.95523 2 2.9 2H1C0.447716 2 0 2.45789 0 3.02274V4.88641C0 5.4387 0.447715 5.88641 1 5.88641C1.55228 5.88641 2 6.3443 2 6.90915C2 7.47397 1.55228 7.93185 1 7.93185C0.447715 7.93185 0 8.37957 0 8.93185V9.97726C0 10.5421 0.447716 11 1 11H8C8.55228 11 9 10.5421 9 9.97726V9.1C9 9.04477 9.04482 9.00026 9.09999 8.99754C10.1581 8.94545 11 8.07106 11 7C11 5.92894 10.1581 5.05455 9.09999 5.00246C9.04482 4.99974 9 4.95523 9 4.9V3.02272C9 2.45789 8.55228 2 8 2H7.1C7.04477 2 7.00026 1.95518 6.99754 1.90001Z" fill="#7D7D7D"/>
</g>
<defs>
<clipPath id="clip0_1_11737">
<rect width="11" height="11" fill="white"/>
</clipPath>
</defs>
</svg>
