<svg width="11" height="11" viewBox="0 0 11 11" fill="none" xmlns="http://www.w3.org/2000/svg">
<g clip-path="url(#clip0_1_11721)">
<path fill-rule="evenodd" clip-rule="evenodd" d="M9.64691 4.14708L10.3296 4.27083C10.7114 4.32654 10.9963 4.65359 10.9999 5.04089V5.94415C11.0058 6.33144 10.7267 6.66529 10.3445 6.72916L9.61421 6.84929C9.60813 6.85028 9.60367 6.85554 9.60367 6.86169L9.60352 6.86362L9.60305 6.86561C9.54474 7.04333 9.47398 7.21593 9.3911 7.38304C9.37465 7.4162 9.37716 7.45573 9.39829 7.48612L9.7959 8.05822C10.0193 8.36988 9.98451 8.79885 9.71359 9.07155L9.07314 9.71161C8.80221 9.98295 8.37389 10.0192 8.06135 9.79406L7.50244 9.39297C7.47232 9.37136 7.43275 9.36826 7.39937 9.38439C7.24501 9.45899 7.08656 9.52562 6.92475 9.58233C6.89025 9.59442 6.86464 9.62393 6.85819 9.65992L6.73568 10.3435C6.67191 10.7263 6.33856 11.0058 5.95185 10.9999H5.04862C4.66191 11.0058 4.32857 10.7263 4.2648 10.3435L4.15306 9.66216C4.14697 9.62498 4.12045 9.59448 4.08472 9.58254C3.9227 9.52837 3.76489 9.46358 3.61203 9.38842C3.57884 9.37209 3.53935 9.3747 3.50902 9.39587L2.93866 9.79407C2.62612 10.0187 2.19779 9.98296 1.92687 9.71163L1.28643 9.07156C1.0155 8.79931 0.980673 8.37034 1.20411 8.05823L1.60326 7.51401C1.62559 7.48357 1.62878 7.4432 1.61216 7.40931C1.53657 7.25518 1.47104 7.0974 1.41532 6.93525C1.40337 6.90048 1.37376 6.8746 1.33757 6.8681L0.655472 6.74549C0.27328 6.68163 -0.00578861 6.34778 9.11964e-05 5.95911V5.05586C-0.00577923 4.66856 0.27328 4.33471 0.655472 4.27084L1.33564 4.15904C1.37309 4.15288 1.40372 4.126 1.41551 4.08992C1.46864 3.92726 1.53323 3.76919 1.60903 3.61715C1.62562 3.58387 1.6232 3.54415 1.60198 3.51362L1.20455 2.94178C0.981118 2.63012 1.01595 2.20115 1.28687 1.92845L1.92731 1.28839C2.19824 1.01705 2.62656 0.98081 2.9391 1.20594L3.4809 1.60544C3.51142 1.62794 3.55199 1.63115 3.58601 1.61441C3.73962 1.53882 3.89778 1.47327 4.05908 1.41752C4.09377 1.40553 4.11956 1.37594 4.12603 1.33981L4.24849 0.65647C4.31226 0.273697 4.6456 -0.00579743 5.03367 9.13353e-05H5.93555C6.32361 -0.00578804 6.65605 0.273697 6.72073 0.65647L6.8324 1.33747C6.83853 1.37484 6.86529 1.40544 6.90126 1.41729C7.06262 1.47047 7.2202 1.53509 7.37186 1.61093C7.4052 1.6276 7.44504 1.62517 7.47562 1.60385L8.04642 1.20593C8.3576 0.981255 8.78592 1.01704 9.0582 1.28837L9.69729 1.91349C9.96957 2.18483 10.0044 2.61381 9.77961 2.92682L9.3792 3.4865C9.35759 3.51671 9.3546 3.55637 9.37079 3.5898C9.44752 3.7483 9.51371 3.91151 9.56888 4.0787C9.58053 4.11402 9.61032 4.14044 9.64691 4.14708ZM5.5 7.5C6.60457 7.5 7.5 6.60457 7.5 5.5C7.5 4.39543 6.60457 3.5 5.5 3.5C4.39543 3.5 3.5 4.39543 3.5 5.5C3.5 6.60457 4.39543 7.5 5.5 7.5Z" fill="#1782FF"/>
</g>
<defs>
<clipPath id="clip0_1_11721">
<rect width="11" height="11" fill="white"/>
</clipPath>
</defs>
</svg>
