<svg width="11" height="11" viewBox="0 0 11 11" fill="none" xmlns="http://www.w3.org/2000/svg">
<g clip-path="url(#clip0_1_11719)">
<path fill-rule="evenodd" clip-rule="evenodd" d="M9.99991 5.31086C9.99991 5.26251 9.96532 5.22109 9.91775 5.21247L9.46855 5.13104C9.06305 5.05754 8.74301 4.76717 8.61924 4.39204C8.57799 4.26702 8.5284 4.14469 8.47073 4.02557C8.29868 3.6702 8.32642 3.2394 8.56591 2.90465L8.81022 2.56316C8.83892 2.52304 8.83408 2.46798 8.79881 2.43349L8.53981 2.18015C8.50547 2.14656 8.4521 2.14213 8.41269 2.1696L8.0475 2.42419C7.70826 2.66068 7.27659 2.68134 6.92462 2.50534C6.81745 2.45174 6.70483 2.40546 6.58828 2.36705C6.20767 2.24163 5.91355 1.91382 5.84558 1.49929L5.77747 1.08391C5.76954 1.03557 5.72777 1.00009 5.67878 1.00009H5.28652C5.23809 1.00009 5.19663 1.03479 5.18808 1.08245L5.11035 1.51621C5.03863 1.91641 4.75525 2.23495 4.38575 2.36266C4.26238 2.4053 4.14266 2.455 4.02755 2.51165C3.66625 2.68945 3.22563 2.65967 2.88743 2.4103L2.57221 2.17787C2.53241 2.14853 2.47715 2.15267 2.44217 2.18762L2.18033 2.44931C2.14609 2.48353 2.14128 2.53736 2.1689 2.57711L2.42314 2.94291C2.65854 3.28161 2.67912 3.71205 2.50397 4.06334C2.45045 4.17069 2.40433 4.28334 2.36608 4.40042C2.2414 4.78211 1.9133 5.0775 1.49784 5.14579L1.08387 5.21384C1.03555 5.22178 1.00009 5.26355 1.00009 5.31252V5.70778C1.00009 5.75618 1.03476 5.79764 1.0824 5.8062L1.51449 5.88387C1.91541 5.95594 2.2339 6.2403 2.36103 6.61025C2.40317 6.73287 2.4527 6.85215 2.51001 6.96901C2.68681 7.32954 2.65694 7.76822 2.40963 8.10542L2.17477 8.42565C2.14557 8.46546 2.14979 8.52062 2.18471 8.55552L2.4467 8.81735C2.48098 8.85161 2.5349 8.85636 2.57464 8.82862L2.93658 8.57592C3.27276 8.34123 3.70133 8.31796 4.0533 8.49104C4.16574 8.54633 4.28204 8.5941 4.40178 8.63413C4.78084 8.76086 5.0723 9.08819 5.13989 9.50034L5.20806 9.91609C5.21599 9.96443 5.25776 9.99991 5.30674 9.99991H5.69766C5.74608 9.99991 5.78755 9.96521 5.79609 9.91755L5.87387 9.48352C5.94531 9.08489 6.22674 8.76732 6.59401 8.63861C6.7175 8.59533 6.84111 8.54353 6.96422 8.48403C7.3213 8.31145 7.75216 8.34134 8.08546 8.58052L8.42675 8.82543C8.46652 8.85397 8.52111 8.84952 8.55574 8.81491L8.82012 8.55069C8.85436 8.51647 8.85918 8.46264 8.83155 8.42289L8.57714 8.05683C8.34305 7.72001 8.3206 7.29082 8.49524 6.93871C8.55106 6.82616 8.59941 6.71045 8.64021 6.59161C8.74325 6.21901 9.05465 5.92789 9.45191 5.86254L9.91614 5.78619C9.96445 5.77824 9.99991 5.73648 9.99991 5.68751V5.31086ZM10.3445 6.72916L9.61421 6.84929C9.60813 6.85028 9.60367 6.85554 9.60367 6.86169L9.60305 6.86561C9.54474 7.04333 9.47398 7.21593 9.3911 7.38304C9.37465 7.4162 9.37717 7.45573 9.39829 7.48612L9.7959 8.05822C10.0193 8.36988 9.98451 8.79885 9.71359 9.07155L9.07314 9.71161C8.80221 9.98295 8.37389 10.0192 8.06136 9.79406L7.50244 9.39297C7.47232 9.37136 7.43275 9.36826 7.39937 9.38439C7.24501 9.45899 7.08656 9.52562 6.92475 9.58233C6.89025 9.59442 6.86464 9.62393 6.85819 9.65992L6.73568 10.3435C6.67192 10.7263 6.33856 11.0058 5.95186 10.9999H5.04862C4.66191 11.0058 4.32857 10.7263 4.2648 10.3435L4.15307 9.66216C4.14697 9.62498 4.12045 9.59448 4.08472 9.58254C3.9227 9.52837 3.76489 9.46358 3.61203 9.38842C3.57884 9.37209 3.53935 9.3747 3.50902 9.39587L2.93866 9.79407C2.62612 10.0187 2.19779 9.98296 1.92687 9.71163L1.28643 9.07156C1.0155 8.79931 0.980673 8.37034 1.20411 8.05823L1.60326 7.51401C1.62559 7.48357 1.62878 7.4432 1.61216 7.40931C1.53657 7.25518 1.47104 7.0974 1.41532 6.93525C1.40337 6.90048 1.37376 6.8746 1.33757 6.8681L0.655472 6.74549C0.27328 6.68163 -0.00578861 6.34778 9.11964e-05 5.95911V5.05586C-0.00577923 4.66856 0.27328 4.33471 0.655472 4.27084L1.33564 4.15904C1.37309 4.15288 1.40372 4.126 1.41551 4.08992C1.46864 3.92726 1.53323 3.76919 1.60903 3.61715C1.62562 3.58387 1.6232 3.54415 1.60198 3.51362L1.20455 2.94178C0.981118 2.63012 1.01595 2.20115 1.28687 1.92845L1.92731 1.28839C2.19824 1.01705 2.62656 0.98081 2.9391 1.20594L3.4809 1.60544C3.51142 1.62794 3.55199 1.63115 3.58601 1.61441C3.73962 1.53882 3.89778 1.47327 4.05908 1.41752C4.09377 1.40553 4.11956 1.37594 4.12603 1.33981L4.24849 0.65647C4.31226 0.273697 4.6456 -0.00579743 5.03367 9.13353e-05H5.93555C6.32361 -0.00578804 6.65605 0.273697 6.72073 0.65647L6.8324 1.33747C6.83853 1.37484 6.86529 1.40544 6.90126 1.41729C7.06262 1.47047 7.2202 1.53509 7.37187 1.61093C7.4052 1.6276 7.44504 1.62517 7.47562 1.60385L8.04642 1.20593C8.3576 0.981255 8.78592 1.01704 9.05821 1.28837L9.6973 1.91349C9.96957 2.18483 10.0044 2.61381 9.77961 2.92682L9.3792 3.4865C9.35759 3.51671 9.3546 3.55637 9.37079 3.5898C9.44752 3.7483 9.51371 3.91151 9.56888 4.0787C9.58053 4.11402 9.61032 4.14044 9.64691 4.14708L10.3296 4.27083C10.7114 4.32654 10.9963 4.65359 10.9999 5.04089V5.94415C11.0058 6.33144 10.7267 6.66529 10.3445 6.72916Z" fill="#7D7D7D"/>
<path fill-rule="evenodd" clip-rule="evenodd" d="M8 5.5C8 6.88071 6.88071 8 5.5 8C4.11929 8 3 6.88071 3 5.5C3 4.11929 4.11929 3 5.5 3C6.88071 3 8 4.11929 8 5.5ZM5.5 7C6.32843 7 7 6.32843 7 5.5C7 4.67157 6.32843 4 5.5 4C4.67157 4 4 4.67157 4 5.5C4 6.32843 4.67157 7 5.5 7Z" fill="#7D7D7D"/>
</g>
<defs>
<clipPath id="clip0_1_11719">
<rect width="11" height="11" fill="white"/>
</clipPath>
</defs>
</svg>
