<svg width="11" height="11" viewBox="0 0 11 11" fill="none" xmlns="http://www.w3.org/2000/svg">
<path fill-rule="evenodd" clip-rule="evenodd" d="M4.06818 9.32584C3.4532 9.32584 2.95455 8.83247 2.95455 8.22399V3.0463C2.95455 2.43782 3.4532 1.94444 4.06818 1.94444H6.23933C6.50282 1.94444 6.7166 1.73293 6.7166 1.47222C6.7166 1.21152 6.50282 1 6.23933 1H4.06818C2.9262 1 2 1.91591 2 3.0463V8.22399C2 9.35389 2.9262 10.2703 4.06818 10.2703H6.23933C6.50282 10.2703 6.7166 10.0588 6.7166 9.79807C6.7166 9.53736 6.50282 9.32584 6.23933 9.32584H4.06818ZM7.59351 7.70556C7.77994 7.89001 8.08221 7.89001 8.26865 7.70556L10.0236 5.96916C10.1131 5.88062 10.1633 5.7606 10.1633 5.63517C10.1633 5.50974 10.1131 5.38971 10.0236 5.30118L8.26865 3.56478C8.08222 3.38033 7.77995 3.38033 7.59351 3.56478C7.40708 3.74875 7.40708 4.04782 7.59351 4.23229L8.53413 5.16296H5.1152C4.85171 5.16296 4.63793 5.37448 4.63793 5.63518C4.63793 5.89589 4.85171 6.1074 5.1152 6.1074H8.53413L7.59351 7.03807C7.40708 7.22253 7.40708 7.52109 7.59351 7.70556Z" fill="#7D7D7D"/>
</svg>
