<svg width="11" height="11" viewBox="0 0 11 11" fill="none" xmlns="http://www.w3.org/2000/svg">
<path fill-rule="evenodd" clip-rule="evenodd" d="M10 3.1C10 3.04477 9.95523 3 9.9 3H1.1C1.04477 3 1 3.04477 1 3.1L1 7.9C1 7.95523 1.04477 8 1.1 8H9.9C9.95523 8 10 7.95523 10 7.9V3.1ZM1 2C0.447715 2 0 2.44772 0 3V8C0 8.55228 0.447715 9 1 9H10C10.5523 9 11 8.55228 11 8V3C11 2.44772 10.5523 2 10 2H1Z" fill="#7D7D7D"/>
<path d="M7 4C7 3.72386 7.22386 3.5 7.5 3.5C7.77614 3.5 8 3.72386 8 4C8 4.27614 7.77614 4.5 7.5 4.5C7.22386 4.5 7 4.27614 7 4Z" fill="#7D7D7D"/>
<path d="M3 4C3 3.72386 3.22386 3.5 3.5 3.5C3.77614 3.5 4 3.72386 4 4C4 4.27614 3.77614 4.5 3.5 4.5C3.22386 4.5 3 4.27614 3 4Z" fill="#7D7D7D"/>
</svg>
