<svg width="11" height="11" viewBox="0 0 11 11" fill="none" xmlns="http://www.w3.org/2000/svg">
<g clip-path="url(#clip0_1_11717)">
<path fill-rule="evenodd" clip-rule="evenodd" d="M0.154659 7.61471C0.15442 7.61431 0.153989 7.61407 0.153524 7.61407C0.153061 7.61407 0.152629 7.61382 0.152389 7.61343C-0.132198 7.14228 -0.00746652 6.53396 0.437121 6.19896L0.880282 5.86595C0.906545 5.84621 0.921439 5.81484 0.920129 5.78201L0.914759 5.64753C0.91252 5.59811 0.91252 5.5487 0.91252 5.49929C0.91252 5.47458 0.91308 5.44987 0.913639 5.42516C0.914199 5.40046 0.914759 5.37575 0.914759 5.35104L0.920112 5.218C0.921433 5.18517 0.906538 5.15378 0.880266 5.13404L0.437121 4.80104C-0.00767624 4.46587 -0.130076 3.85715 0.152778 3.38593L0.916987 2.11549C1.12147 1.77603 1.50134 1.56549 1.91031 1.56549C2.05583 1.56549 2.20062 1.59127 2.33645 1.64426L2.86619 1.84865C2.895 1.85976 2.92731 1.85695 2.95376 1.84103L3.07603 1.76743C3.16409 1.71587 3.25215 1.66646 3.34171 1.62062L3.4677 1.55596C3.49636 1.54126 3.51618 1.51365 3.52095 1.48179L3.60142 0.943873C3.68202 0.405331 4.16934 0 4.73654 0H6.26496C6.83288 0 7.31948 0.404616 7.40008 0.943873L7.48058 1.48201C7.48533 1.51375 7.50501 1.54127 7.53351 1.55602L7.6583 1.62062C7.74785 1.66646 7.83815 1.71587 7.92397 1.76743L8.04624 1.84103C8.07269 1.85695 8.10501 1.85976 8.13381 1.84865L8.66355 1.64426C8.79939 1.5927 8.94267 1.56549 9.08969 1.56549C9.49866 1.56549 9.87853 1.77603 10.083 2.11549L10.8472 3.38593C11.1323 3.85717 11.0077 4.46589 10.5629 4.80104L10.1197 5.13405C10.0935 5.15378 10.0786 5.18516 10.0799 5.21798L10.0852 5.35247C10.0875 5.40189 10.0875 5.4513 10.0875 5.50071C10.0875 5.52542 10.0869 5.55013 10.0864 5.57484C10.0858 5.59954 10.0852 5.62425 10.0852 5.64896L10.0799 5.782C10.0786 5.81483 10.0935 5.84622 10.1197 5.86596L10.5629 6.19896C11.0077 6.53413 11.1301 7.14285 10.8472 7.61407L10.083 8.88451C9.87853 9.22397 9.49866 9.43451 9.08969 9.43451C8.94417 9.43451 8.79938 9.40873 8.66355 9.35574L8.13381 9.15135C8.10501 9.14024 8.07269 9.14305 8.04624 9.15897L7.92397 9.23257C7.83591 9.28413 7.74785 9.33354 7.6583 9.37938L7.53351 9.44398C7.50501 9.45873 7.48533 9.48625 7.48058 9.51799L7.40008 10.0561C7.31947 10.5947 6.83215 11 6.26496 11H4.73654C4.16862 11 3.68202 10.5954 3.60142 10.0561L3.52091 9.51799C3.51617 9.48625 3.49648 9.45873 3.46799 9.44398L3.3432 9.37938C3.25365 9.33354 3.16335 9.28413 3.07752 9.23257L2.95526 9.15897C2.92881 9.14305 2.89649 9.14024 2.86769 9.15135L2.33794 9.35574C2.20211 9.4073 2.05882 9.43451 1.9118 9.43451C1.50284 9.43451 1.12297 9.22397 0.918483 8.88451L0.154659 7.61471ZM5.5 7.5C6.60457 7.5 7.5 6.60457 7.5 5.5C7.5 4.39543 6.60457 3.5 5.5 3.5C4.39543 3.5 3.5 4.39543 3.5 5.5C3.5 6.60457 4.39543 7.5 5.5 7.5Z" fill="#1782FF"/>
</g>
<defs>
<clipPath id="clip0_1_11717">
<rect width="11" height="11" fill="white"/>
</clipPath>
</defs>
</svg>
