<svg width="11" height="11" viewBox="0 0 11 11" fill="none" xmlns="http://www.w3.org/2000/svg">
<g clip-path="url(#clip0_1_11713)">
<mask id="path-1-inside-1_1_11713" fill="white">
<path d="M0.153524 7.61407C0.153989 7.61407 0.15442 7.61431 0.154659 7.61471L0.918483 8.88451C1.12297 9.22397 1.50284 9.43451 1.9118 9.43451C2.05882 9.43451 2.20211 9.4073 2.33794 9.35574L2.86769 9.15135C2.89649 9.14024 2.92881 9.14305 2.95526 9.15897L3.07752 9.23257C3.16335 9.28413 3.25365 9.33354 3.3432 9.37938L3.46799 9.44398C3.49648 9.45873 3.51617 9.48625 3.52091 9.51799L3.60142 10.0561C3.68202 10.5954 4.16862 11 4.73654 11H6.26496C6.83215 11 7.31947 10.5947 7.40008 10.0561L7.48058 9.51799C7.48533 9.48625 7.50501 9.45873 7.53351 9.44398L7.6583 9.37938C7.74785 9.33354 7.83591 9.28413 7.92397 9.23257L8.04624 9.15897C8.07269 9.14305 8.10501 9.14024 8.13381 9.15135L8.66355 9.35574C8.79938 9.40873 8.94417 9.43451 9.08969 9.43451C9.49866 9.43451 9.87853 9.22397 10.083 8.88451L10.8472 7.61407C11.1301 7.14285 11.0077 6.53413 10.5629 6.19896L10.1197 5.86596C10.0935 5.84622 10.0786 5.81483 10.0799 5.782L10.0852 5.64896C10.0852 5.59954 10.0875 5.55013 10.0875 5.50071C10.0875 5.4513 10.0875 5.40189 10.0852 5.35247L10.0799 5.21798C10.0786 5.18516 10.0935 5.15378 10.1197 5.13405L10.5629 4.80104C11.0077 4.46589 11.1323 3.85717 10.8472 3.38593L10.083 2.11549C9.87853 1.77603 9.49866 1.56549 9.08969 1.56549C8.94267 1.56549 8.79939 1.5927 8.66355 1.64426L8.13381 1.84865C8.10501 1.85976 8.07269 1.85695 8.04624 1.84103L7.92397 1.76743C7.83815 1.71587 7.74785 1.66646 7.6583 1.62062L7.53351 1.55602C7.50501 1.54127 7.48533 1.51375 7.48058 1.48201L7.40008 0.943873C7.31948 0.404616 6.83288 0 6.26496 0H4.73654C4.16934 0 3.68202 0.405331 3.60142 0.943873L3.52095 1.48179C3.51618 1.51365 3.49636 1.54126 3.4677 1.55596L3.34171 1.62062C3.25215 1.66646 3.16409 1.71587 3.07603 1.76743L2.95376 1.84103C2.92731 1.85695 2.895 1.85976 2.86619 1.84865L2.33645 1.64426C2.20062 1.59127 2.05583 1.56549 1.91031 1.56549C1.50134 1.56549 1.12147 1.77603 0.916987 2.11549L0.152778 3.38593C-0.130076 3.85715 -0.00767624 4.46587 0.437121 4.80104L0.880266 5.13404C0.906538 5.15378 0.921433 5.18517 0.920112 5.218L0.914759 5.35104C0.914759 5.40046 0.91252 5.44987 0.91252 5.49928C0.91252 5.5487 0.91252 5.59811 0.914759 5.64753L0.920129 5.78201C0.921439 5.81484 0.906545 5.84621 0.880282 5.86595L0.437121 6.19896C-0.00746652 6.53396 -0.132198 7.14228 0.152389 7.61343C0.152629 7.61382 0.153061 7.61407 0.153524 7.61407Z"/>
</mask>
<path d="M0.918483 8.88451L0.0615689 9.39997L0.0618904 9.40051L0.918483 8.88451ZM2.33794 9.35574L2.69283 10.2907L2.6979 10.2887L2.33794 9.35574ZM3.07752 9.23257L2.56181 10.0893L2.56253 10.0898L3.07752 9.23257ZM3.3432 9.37938L3.80294 8.49131L3.79881 8.4892L3.3432 9.37938ZM3.60142 10.0561L4.59043 9.9083L4.59041 9.90817L3.60142 10.0561ZM7.40008 10.0561L8.38906 10.2042L8.38907 10.2041L7.40008 10.0561ZM7.6583 9.37938L7.2027 8.48917L7.19857 8.49132L7.6583 9.37938ZM7.92397 9.23257L8.42931 10.0956L8.43968 10.0893L7.92397 9.23257ZM8.66355 9.35574L9.02703 8.42413L9.02351 8.42277L8.66355 9.35574ZM10.083 8.88451L10.9396 9.40051L10.9399 9.39997L10.083 8.88451ZM10.8472 7.61407L11.7041 8.12953L11.7046 8.12873L10.8472 7.61407ZM10.5629 6.19896L11.1647 5.40031L11.1636 5.39951L10.5629 6.19896ZM10.0852 5.64896L11.0844 5.68916L11.0852 5.66907V5.64896H10.0852ZM10.0852 5.35247L9.08602 5.39237L9.08627 5.39774L10.0852 5.35247ZM10.5629 4.80104L11.1636 5.60049L11.1647 5.5997L10.5629 4.80104ZM10.8472 3.38593L9.99031 3.90139L9.99161 3.90355L10.8472 3.38593ZM10.083 2.11549L10.9399 1.60003L10.9396 1.59949L10.083 2.11549ZM8.66355 1.64426L8.30867 0.709337L8.30359 0.711295L8.66355 1.64426ZM7.92397 1.76743L8.43968 0.910666L8.43896 0.910239L7.92397 1.76743ZM7.6583 1.62062L7.19856 2.50869L7.20269 2.5108L7.6583 1.62062ZM7.40008 0.943873L6.41106 1.09169L6.41108 1.09183L7.40008 0.943873ZM3.60142 0.943873L2.61244 0.795849L2.61242 0.79592L3.60142 0.943873ZM3.34171 1.62062L3.79729 2.51082L3.79827 2.51031L3.34171 1.62062ZM3.07603 1.76743L2.57069 0.904426L2.56032 0.910668L3.07603 1.76743ZM2.33645 1.64426L1.97297 2.57587L1.97649 2.57723L2.33645 1.64426ZM0.916987 2.11549L0.0603943 1.59949L0.0600729 1.60003L0.916987 2.11549ZM0.152778 3.38593L-0.704137 2.87047L-0.704619 2.87127L0.152778 3.38593ZM0.437121 4.80104L-0.164685 5.59969L-0.163613 5.60049L0.437121 4.80104ZM0.914759 5.35104L-0.0844326 5.31084L-0.0852411 5.33093V5.35104H0.914759ZM0.914759 5.64753L1.91398 5.60763L1.91373 5.60226L0.914759 5.64753ZM0.437121 6.19896L-0.163613 5.39951L-0.16467 5.4003L0.437121 6.19896ZM0.880282 5.86595L0.279548 5.0665L0.880282 5.86595ZM3.52095 1.48179L4.50994 1.62974L3.52095 1.48179ZM3.4677 1.55596L3.92427 2.44565L3.4677 1.55596ZM2.95376 1.84103L2.43806 0.984263L2.95376 1.84103ZM2.86619 1.84865L2.50624 2.78162L2.86619 1.84865ZM0.152389 7.61343L1.00836 7.0964L0.152389 7.61343ZM8.13381 1.84865L8.49377 2.78162L8.13381 1.84865ZM8.04624 1.84103L8.56194 0.984262L8.04624 1.84103ZM0.880266 5.13404L1.481 4.33459L0.880266 5.13404ZM10.0799 5.21798L11.0791 5.17809L10.0799 5.21798ZM10.1197 5.13405L10.7205 5.9335L10.1197 5.13405ZM10.1197 5.86596L10.7205 5.06651L10.1197 5.86596ZM10.0799 5.782L11.0791 5.8222L10.0799 5.782ZM7.53351 1.55602L7.99324 0.667965L7.53351 1.55602ZM7.48058 1.48201L6.49159 1.62997L7.48058 1.48201ZM7.48058 9.51799L8.46958 9.66594L7.48058 9.51799ZM7.53351 9.44398L7.07378 8.55592L7.53351 9.44398ZM3.46799 9.44398L3.92772 8.55592L3.46799 9.44398ZM3.52091 9.51799L2.53192 9.66594L3.52091 9.51799ZM2.86769 9.15135L2.50773 8.21838L2.86769 9.15135ZM8.04624 9.15897L7.53053 8.30221L8.04624 9.15897ZM8.13381 9.15135L8.49377 8.21838L8.13381 9.15135ZM0.154659 7.61471L1.01157 7.09925L0.154659 7.61471ZM-0.702255 8.13017L0.0615691 9.39997L1.7754 8.36905L1.01157 7.09925L-0.702255 8.13017ZM0.0618904 9.40051C0.453984 10.0514 1.16534 10.4345 1.9118 10.4345V8.43451C1.84033 8.43451 1.79195 8.39653 1.77508 8.36852L0.0618904 9.40051ZM1.9118 10.4345C2.18363 10.4345 2.44698 10.384 2.69283 10.2906L1.98306 8.42083C1.95723 8.43063 1.93401 8.43451 1.9118 8.43451V10.4345ZM2.6979 10.2887L3.22765 10.0843L2.50773 8.21838L1.97799 8.42277L2.6979 10.2887ZM2.43954 10.0157L2.56181 10.0893L3.59324 8.3758L3.47097 8.30221L2.43954 10.0157ZM2.56253 10.0898C2.67131 10.1551 2.78192 10.2155 2.88759 10.2696L3.79881 8.4892C3.72538 8.45161 3.65539 8.41315 3.59252 8.37537L2.56253 10.0898ZM2.88347 10.2674L3.00826 10.332L3.92772 8.55592L3.80293 8.49132L2.88347 10.2674ZM2.53192 9.66594L2.61242 10.2041L4.59041 9.90817L4.50991 9.37003L2.53192 9.66594ZM2.61241 10.204C2.77073 11.2632 3.70462 12 4.73654 12V10C4.69154 10 4.65291 9.98409 4.62559 9.96138C4.59861 9.93894 4.59197 9.91859 4.59043 9.9083L2.61241 10.204ZM4.73654 12H6.26496V10H4.73654V12ZM6.26496 12C7.29634 12 8.23068 11.2623 8.38906 10.2042L6.41109 9.9081C6.40968 9.91755 6.40322 9.93817 6.37559 9.96114C6.3477 9.98434 6.30894 10 6.26496 10V12ZM8.38907 10.2041L8.46958 9.66594L6.49159 9.37003L6.41108 9.90817L8.38907 10.2041ZM7.99324 10.332L8.11803 10.2674L7.19857 8.49132L7.07378 8.55592L7.99324 10.332ZM8.11388 10.2696C8.22575 10.2123 8.33126 10.1529 8.42927 10.0955L7.41867 8.36962C7.34056 8.41536 7.26995 8.45477 7.20271 8.48919L8.11388 10.2696ZM8.43968 10.0893L8.56195 10.0157L7.53053 8.30221L7.40827 8.3758L8.43968 10.0893ZM7.77385 10.0843L8.30359 10.2887L9.02351 8.42277L8.49377 8.21838L7.77385 10.0843ZM8.30008 10.2873C8.55783 10.3879 8.8265 10.4345 9.08969 10.4345V8.43451C9.06184 8.43451 9.04093 8.42956 9.02703 8.42413L8.30008 10.2873ZM9.08969 10.4345C9.83615 10.4345 10.5475 10.0514 10.9396 9.40051L9.22642 8.36852C9.20955 8.39653 9.16117 8.43451 9.08969 8.43451V10.4345ZM10.9399 9.39997L11.7041 8.12953L9.99031 7.09861L9.2261 8.36905L10.9399 9.39997ZM11.7046 8.12873C12.2564 7.20943 12.0093 6.03677 11.1647 5.40031L9.96107 6.9976C10.006 7.03148 10.0037 7.07626 9.98983 7.09941L11.7046 8.12873ZM11.1636 5.39951L10.7205 5.06651L9.519 6.66541L9.96215 6.9984L11.1636 5.39951ZM11.0791 5.8222L11.0844 5.68916L9.08605 5.60875L9.0807 5.74179L11.0791 5.8222ZM11.0852 5.64896C11.0852 5.63747 11.0855 5.62408 11.0861 5.59749C11.0866 5.57467 11.0875 5.53864 11.0875 5.50071H9.08748C9.08748 5.51221 9.08722 5.52559 9.08662 5.55218C9.0861 5.575 9.08524 5.61103 9.08524 5.64896H11.0852ZM11.0875 5.50071C11.0875 5.45506 11.0877 5.38301 11.0842 5.30721L9.08627 5.39774C9.08731 5.42077 9.08748 5.44754 9.08748 5.50071H11.0875ZM11.0844 5.31257L11.0791 5.17809L9.08067 5.25788L9.08604 5.39237L11.0844 5.31257ZM10.7205 5.9335L11.1636 5.60049L9.96215 4.00159L9.51899 4.3346L10.7205 5.9335ZM11.1647 5.5997C12.0063 4.96551 12.2617 3.79209 11.7028 2.86831L9.99161 3.90355C9.99925 3.91618 10.002 3.92932 9.99857 3.94644C9.99496 3.9643 9.98443 3.9848 9.96109 4.00239L11.1647 5.5997ZM11.7041 2.87047L10.9399 1.60003L9.2261 2.63095L9.99031 3.90139L11.7041 2.87047ZM10.9396 1.59949C10.5475 0.948583 9.83615 0.565487 9.08969 0.565487V2.56549C9.16117 2.56549 9.20955 2.60347 9.22642 2.63148L10.9396 1.59949ZM9.08969 0.565487C8.81786 0.565487 8.55451 0.616033 8.30867 0.709351L9.01843 2.57917C9.04427 2.56937 9.06748 2.56549 9.08969 2.56549V0.565487ZM8.30359 0.711295L7.77385 0.915681L8.49377 2.78162L9.02351 2.57723L8.30359 0.711295ZM8.56194 0.984262L8.43968 0.910667L7.40827 2.6242L7.53054 2.6978L8.56194 0.984262ZM8.43896 0.910239C8.33019 0.844888 8.21958 0.784529 8.1139 0.730444L7.20269 2.5108C7.27611 2.54838 7.34611 2.58685 7.40898 2.62463L8.43896 0.910239ZM8.11802 0.732565L7.99324 0.667965L7.07378 2.44408L7.19857 2.50868L8.11802 0.732565ZM8.46958 1.33406L8.38907 0.79592L6.41108 1.09183L6.49159 1.62997L8.46958 1.33406ZM8.38909 0.796051C8.23077 -0.263194 7.29688 -1 6.26496 -1V1C6.30996 1 6.34859 1.01591 6.3759 1.03862C6.40288 1.06106 6.40952 1.08141 6.41106 1.09169L8.38909 0.796051ZM6.26496 -1H4.73654V1H6.26496V-1ZM4.73654 -1C3.70516 -1 2.77082 -0.262339 2.61244 0.795849L4.5904 1.0919C4.59182 1.08245 4.59828 1.06183 4.6259 1.03886C4.6538 1.01566 4.69255 1 4.73654 1V-1ZM2.61242 0.79592L2.53195 1.33384L4.50994 1.62974L4.59041 1.09183L2.61242 0.79592ZM3.01114 0.666275L2.88514 0.730934L3.79827 2.51031L3.92427 2.44565L3.01114 0.666275ZM2.88612 0.730432C2.77425 0.787684 2.66874 0.847102 2.57073 0.904489L3.58133 2.63038C3.65944 2.58464 3.73005 2.54523 3.79729 2.51082L2.88612 0.730432ZM2.56032 0.910668L2.43806 0.984263L3.46947 2.69779L3.59173 2.6242L2.56032 0.910668ZM3.22615 0.915681L2.69641 0.711294L1.97649 2.57723L2.50624 2.78162L3.22615 0.915681ZM2.69992 0.712659C2.44217 0.612094 2.1735 0.565487 1.91031 0.565487V2.56549C1.93817 2.56549 1.95907 2.57044 1.97297 2.57587L2.69992 0.712659ZM1.91031 0.565487C1.16385 0.565487 0.452489 0.948584 0.0603945 1.59949L1.77358 2.63148C1.79045 2.60347 1.83883 2.56549 1.91031 2.56549V0.565487ZM0.0600729 1.60003L-0.704137 2.87047L1.00969 3.90139L1.7739 2.63095L0.0600729 1.60003ZM-0.704619 2.87127C-1.25643 3.79057 -1.00931 4.96323 -0.164685 5.59969L1.03893 4.0024C0.993961 3.96852 0.996277 3.92374 1.01017 3.90059L-0.704619 2.87127ZM-0.163613 5.60049L0.279533 5.93349L1.481 4.33459L1.03785 4.00159L-0.163613 5.60049ZM-0.0790796 5.1778L-0.0844326 5.31084L1.91395 5.39125L1.9193 5.25821L-0.0790796 5.1778ZM-0.0852411 5.35104C-0.0852411 5.36254 -0.0855015 5.37592 -0.0861041 5.40252C-0.086621 5.42533 -0.08748 5.46136 -0.08748 5.49928H1.91252C1.91252 5.48779 1.91278 5.47441 1.91338 5.44781C1.9139 5.425 1.91476 5.38896 1.91476 5.35104H-0.0852411ZM-0.08748 5.49928C-0.08748 5.54494 -0.0876507 5.61699 -0.0842162 5.69279L1.91373 5.60226C1.91269 5.57923 1.91252 5.55246 1.91252 5.49928H-0.08748ZM-0.084445 5.68742L-0.079075 5.82191L1.91933 5.74212L1.91396 5.60763L-0.084445 5.68742ZM0.279548 5.0665L-0.163613 5.39951L1.03785 6.99841L1.48102 6.6654L0.279548 5.0665ZM-0.16467 5.4003C-1.00593 6.0342 -1.26147 7.20684 -0.70358 8.13045L1.00836 7.0964C1.00074 7.08379 0.997971 7.07065 1.00144 7.05353C1.00505 7.03568 1.01558 7.01519 1.03891 6.99761L-0.16467 5.4003ZM-0.079075 5.82191C-0.0908708 5.52649 0.0431832 5.24411 0.279548 5.0665L1.48102 6.6654C1.76991 6.44832 1.93375 6.10319 1.91933 5.74212L-0.079075 5.82191ZM2.53195 1.33384C2.57484 1.04713 2.75322 0.798634 3.01114 0.666275L3.92427 2.44565C4.23951 2.28388 4.45752 1.98017 4.50994 1.62974L2.53195 1.33384ZM2.43806 0.984263C2.67609 0.840987 2.96695 0.815675 3.22615 0.915681L2.50624 2.78162C2.82304 2.90385 3.17854 2.87291 3.46947 2.69779L2.43806 0.984263ZM-0.70358 8.13045C-0.523738 8.42819 -0.199974 8.61407 0.153524 8.61407V6.61407C0.506096 6.61407 0.828996 6.79945 1.00836 7.0964L-0.70358 8.13045ZM7.77385 0.915681C8.03305 0.815675 8.32391 0.840986 8.56194 0.984262L7.53054 2.6978C7.82147 2.87291 8.17696 2.90385 8.49377 2.78162L7.77385 0.915681ZM0.279533 5.93349C0.0430899 5.75582 -0.0909702 5.47332 -0.0790796 5.1778L1.9193 5.25821C1.93384 4.89702 1.76999 4.55174 1.481 4.33459L0.279533 5.93349ZM11.0791 5.17809C11.0909 5.47351 10.9568 5.75589 10.7205 5.9335L9.51899 4.3346C9.23009 4.55168 9.06625 4.89681 9.08067 5.25788L11.0791 5.17809ZM10.7205 5.06651C10.9569 5.24418 11.091 5.52668 11.0791 5.8222L9.0807 5.74179C9.06616 6.10298 9.23001 6.44826 9.519 6.66541L10.7205 5.06651ZM7.99324 0.667965C8.24968 0.800721 8.42685 1.04847 8.46958 1.33406L6.49159 1.62997C6.54381 1.97902 6.76035 2.28183 7.07378 2.44408L7.99324 0.667965ZM8.46958 9.66594C8.42685 9.95153 8.24968 10.1993 7.99324 10.332L7.07378 8.55592C6.76034 8.71818 6.54381 9.02098 6.49159 9.37003L8.46958 9.66594ZM3.00826 10.332C2.75181 10.1993 2.57464 9.95153 2.53192 9.66594L4.50991 9.37003C4.45769 9.02098 4.24115 8.71818 3.92772 8.55592L3.00826 10.332ZM3.22765 10.0843C2.96844 10.1843 2.67758 10.159 2.43954 10.0157L3.47097 8.30221C3.18004 8.12709 2.82454 8.09615 2.50773 8.21838L3.22765 10.0843ZM8.56195 10.0157C8.32391 10.159 8.03305 10.1843 7.77385 10.0843L8.49377 8.21838C8.17696 8.09615 7.82146 8.12709 7.53053 8.30221L8.56195 10.0157ZM1.01157 7.09925C0.830479 6.79819 0.504851 6.61407 0.153524 6.61407V8.61407C-0.196873 8.61407 -0.521639 8.43043 -0.702255 8.13017L1.01157 7.09925Z" fill="#7D7D7D" mask="url(#path-1-inside-1_1_11713)"/>
<path fill-rule="evenodd" clip-rule="evenodd" d="M8 5.5C8 6.88071 6.88071 8 5.5 8C4.11929 8 3 6.88071 3 5.5C3 4.11929 4.11929 3 5.5 3C6.88071 3 8 4.11929 8 5.5ZM5.5 7C6.32843 7 7 6.32843 7 5.5C7 4.67157 6.32843 4 5.5 4C4.67157 4 4 4.67157 4 5.5C4 6.32843 4.67157 7 5.5 7Z" fill="#7D7D7D"/>
</g>
<defs>
<clipPath id="clip0_1_11713">
<rect width="11" height="11" fill="white"/>
</clipPath>
</defs>
</svg>
