<svg width="11" height="11" viewBox="0 0 11 11" fill="none" xmlns="http://www.w3.org/2000/svg">
<g clip-path="url(#clip0_1_11739)">
<path d="M6.99754 1.90001C6.94545 0.841897 6.07104 0 5 0C3.92896 0 3.05455 0.841897 3.00246 1.90001C2.99974 1.95518 2.95523 2 2.9 2H1C0.447716 2 0 2.45789 0 3.02274V3.5C0 3.53841 0 5 0.00637994 5H1C2 5 3 5.89543 3 7C3 8.10457 2.10457 9 1 9H0.1C0.0447715 9 0 9.04477 0 9.1V9.97726C0 10.5421 0.447716 11 1 11H8C8.55228 11 9 10.5421 9 9.97726V9.1C9 9.04477 9.04482 9.00026 9.09999 8.99754C10.1581 8.94545 11 8.07106 11 7C11 5.92894 10.1581 5.05455 9.09999 5.00246C9.04482 4.99974 9 4.95523 9 4.9V3.02272C9 2.45789 8.55228 2 8 2H7.1C7.04477 2 7.00026 1.95518 6.99754 1.90001Z" fill="#1782FF"/>
</g>
<defs>
<clipPath id="clip0_1_11739">
<rect width="11" height="11" fill="white"/>
</clipPath>
</defs>
</svg>
