<svg width="11" height="11" viewBox="0 0 11 11" fill="none" xmlns="http://www.w3.org/2000/svg">
<g clip-path="url(#clip0_1_11705)">
<path fill-rule="evenodd" clip-rule="evenodd" d="M1 0C0.447715 0 0 0.447715 0 1V4C0 4.55228 0.447715 5 1 5H4C4.55228 5 5 4.55228 5 4V1C5 0.447715 4.55228 0 4 0H1ZM4 1H1L1 4H4V1Z" fill="#7D7D7D"/>
<path fill-rule="evenodd" clip-rule="evenodd" d="M7 0C6.44772 0 6 0.447715 6 1V4C6 4.55228 6.44772 5 7 5H10C10.5523 5 11 4.55228 11 4V1C11 0.447715 10.5523 0 10 0H7ZM10 1H7V4H10V1Z" fill="#7D7D7D"/>
<path fill-rule="evenodd" clip-rule="evenodd" d="M0 7C0 6.44772 0.447715 6 1 6H10C10.5523 6 11 6.44772 11 7V10C11 10.5523 10.5523 11 10 11H1C0.447715 11 0 10.5523 0 10V7ZM1 7H10V10H1L1 7Z" fill="#7D7D7D"/>
</g>
<defs>
<clipPath id="clip0_1_11705">
<rect width="11" height="11" fill="white"/>
</clipPath>
</defs>
</svg>
