<svg width="11" height="11" viewBox="0 0 11 11" fill="none" xmlns="http://www.w3.org/2000/svg">
<path fill-rule="evenodd" clip-rule="evenodd" d="M1.671 3.5C1.671 1.567 3.3853 0 5.5 0C7.6147 0 9.329 1.567 9.329 3.5V5.90419C9.329 5.96765 9.3402 6.03069 9.36215 6.0909L9.94302 7.68377C10.1792 8.3313 9.65188 9 8.90516 9H2.09484C1.34812 9 0.820846 8.3313 1.05698 7.68377L1.63785 6.0909C1.6598 6.03069 1.671 5.96765 1.671 5.90419V3.5ZM8.235 3.5V5.90419C8.235 6.07513 8.26515 6.24495 8.32429 6.40712L8.8562 7.86574C8.87999 7.93097 8.83169 8 8.76225 8H2.23775C2.16831 8 2.12001 7.93097 2.1438 7.86574L2.67571 6.40712C2.73485 6.24495 2.765 6.07513 2.765 5.90419V3.5C2.765 2.11929 3.9895 1 5.5 1C7.0105 1 8.235 2.11929 8.235 3.5Z" fill="#7D7D7D"/>
<path d="M3.89117 9.8235C3.94343 10.0588 4.05715 10.2737 4.21636 10.4536C4.23028 10.4694 4.24454 10.4848 4.25914 10.5C4.55398 10.8065 4.98619 11 5.46782 11H5.53218C6.01381 11 6.44602 10.8065 6.74086 10.5C6.75546 10.4848 6.76972 10.4694 6.78364 10.4536C6.94285 10.2737 7.05657 10.0588 7.10883 9.8235C7.12993 9.72848 7.141 9.63013 7.141 9.52941C7.141 9.51317 7.1266 9.5 7.10883 9.5H3.89117C3.8734 9.5 3.859 9.51317 3.859 9.52941C3.859 9.63013 3.87007 9.72848 3.89117 9.8235Z" fill="#7D7D7D"/>
</svg>
