<svg width="11" height="11" viewBox="0 0 11 11" fill="none" xmlns="http://www.w3.org/2000/svg">
<path d="M1.671 3.5C1.671 1.567 3.3853 0 5.5 0C7.6147 0 9.329 1.567 9.329 3.5V5.90419C9.329 5.96765 9.3402 6.03069 9.36215 6.0909L9.94302 7.68377C10.1792 8.3313 9.65188 9 8.90516 9H2.09484C1.34812 9 0.820846 8.3313 1.05698 7.68377L1.63785 6.0909C1.6598 6.03069 1.671 5.96765 1.671 5.90419V3.5Z" fill="#1782FF"/>
<path d="M3.859 9.52941C3.859 9.51317 3.8734 9.5 3.89117 9.5H7.10883C7.1266 9.5 7.141 9.51317 7.141 9.52941C7.141 10.3416 6.42071 11 5.53218 11H5.46782C4.57929 11 3.859 10.3416 3.859 9.52941Z" fill="#1782FF"/>
</svg>
