<svg width="11" height="11" viewBox="0 0 11 11" fill="none" xmlns="http://www.w3.org/2000/svg">
<path fill-rule="evenodd" clip-rule="evenodd" d="M1.50625 1.83937C1.58501 1.35545 2.00298 1 2.49327 1H8.50673C8.99701 1 9.41499 1.35545 9.49375 1.83936L9.78914 3.65436C9.80266 3.73746 9.80562 3.81928 9.79911 3.89866C9.89465 3.90611 9.99109 3.91379 10.0885 3.9217C10.6042 3.96363 11 4.39642 11 4.91388V8.00005C11 8.55233 10.5523 9.00005 10 9.00005V9.75C10 10.1642 9.66421 10.5 9.25 10.5C8.83579 10.5 8.5 10.1642 8.5 9.75V9.00005H2.5V9.75C2.5 10.1642 2.16421 10.5 1.75 10.5C1.33579 10.5 1 10.1642 1 9.75L1 9.00005C0.447715 9.00005 0 8.55233 0 8.00005V4.91817C0 4.39892 0.398454 3.96536 0.916115 3.92477C1.01227 3.91723 1.10752 3.90988 1.2019 3.90274C1.19467 3.82122 1.1974 3.7371 1.21131 3.65162L1.50625 1.83937ZM2.49327 2H8.50673L8.80212 3.81499L8.80026 3.81743C8.79721 3.82066 8.79396 3.82257 8.79187 3.82339L8.78926 3.82408C8.78926 3.82408 8.78621 3.82446 8.78205 3.82409C6.42921 3.6141 4.65627 3.60452 2.22012 3.82248C2.21585 3.82286 2.21252 3.82246 2.21252 3.82246L2.20949 3.82165C2.20712 3.82073 2.20364 3.81865 2.20044 3.81527L2.19826 3.81264L2.49327 2ZM1.5 6.25C1.5 5.83579 1.83579 5.5 2.25 5.5C2.66421 5.5 3 5.83579 3 6.25C3 6.66421 2.66421 7 2.25 7C1.83579 7 1.5 6.66421 1.5 6.25ZM8.75 5.5C8.33579 5.5 8 5.83579 8 6.25C8 6.66421 8.33579 7 8.75 7C9.16421 7 9.5 6.66421 9.5 6.25C9.5 5.83579 9.16421 5.5 8.75 5.5Z" fill="#1782FF"/>
</svg>
