<svg width="11" height="11" viewBox="0 0 11 11" fill="none" xmlns="http://www.w3.org/2000/svg">
<path fill-rule="evenodd" clip-rule="evenodd" d="M10 3.1C10 3.04477 9.95523 3 9.9 3H1.1C1.04477 3 1 3.04477 1 3.1L1 8.4625C1 8.51773 1.04477 8.5625 1.1 8.5625H9.9C9.95523 8.5625 10 8.51773 10 8.4625V3.1ZM1 2C0.447715 2 0 2.44772 0 3V8.5625C0 9.11478 0.447715 9.5625 1 9.5625H10C10.5523 9.5625 11 9.11478 11 8.5625V3C11 2.44772 10.5523 2 10 2H1Z" fill="#8A8B8B"/>
<path d="M5 3.6C5 3.54477 5.04477 3.5 5.1 3.5H9.4C9.45523 3.5 9.5 3.54477 9.5 3.6V4.4C9.5 4.45523 9.45523 4.5 9.4 4.5H5.1C5.04477 4.5 5 4.45523 5 4.4V3.6Z" fill="#8A8B8B"/>
<path d="M1.5 7.5C1.5 7.22386 1.72386 7 2 7H3C3.27614 7 3.5 7.22386 3.5 7.5C3.5 7.77614 3.27614 8 3 8H2C1.72386 8 1.5 7.77614 1.5 7.5Z" fill="#8A8B8B"/>
<path d="M4 7.5C4 7.22386 4.22386 7 4.5 7C4.77614 7 5 7.22386 5 7.5C5 7.77614 4.77614 8 4.5 8C4.22386 8 4 7.77614 4 7.5Z" fill="#8A8B8B"/>
<path d="M5.5 7.5C5.5 7.22386 5.72386 7 6 7H9C9.27614 7 9.5 7.22386 9.5 7.5C9.5 7.77614 9.27614 8 9 8H6C5.72386 8 5.5 7.77614 5.5 7.5Z" fill="#8A8B8B"/>
</svg>
