<svg width="11" height="11" viewBox="0 0 11 11" fill="none" xmlns="http://www.w3.org/2000/svg">
<path fill-rule="evenodd" clip-rule="evenodd" d="M0 3C0 2.44772 0.447715 2 1 2H10C10.5523 2 11 2.44772 11 3V8.5625C11 9.11478 10.5523 9.5625 10 9.5625H1C0.447715 9.5625 0 9.11478 0 8.5625V3ZM5 3.6C5 3.54477 5.04477 3.5 5.1 3.5H9.4C9.45523 3.5 9.5 3.54477 9.5 3.6V4.4C9.5 4.45523 9.45523 4.5 9.4 4.5H5.1C5.04477 4.5 5 4.45523 5 4.4V3.6ZM2 7C1.72386 7 1.5 7.22386 1.5 7.5C1.5 7.77614 1.72386 8 2 8H3C3.27614 8 3.5 7.77614 3.5 7.5C3.5 7.22386 3.27614 7 3 7H2ZM4 7.5C4 7.22386 4.22386 7 4.5 7C4.77614 7 5 7.22386 5 7.5C5 7.77614 4.77614 8 4.5 8C4.22386 8 4 7.77614 4 7.5ZM6 7C5.72386 7 5.5 7.22386 5.5 7.5C5.5 7.77614 5.72386 8 6 8H9C9.27614 8 9.5 7.77614 9.5 7.5C9.5 7.22386 9.27614 7 9 7H6Z" fill="#1782FF"/>
</svg>
