<svg width="11" height="11" viewBox="0 0 11 11" fill="none" xmlns="http://www.w3.org/2000/svg">
<path fill-rule="evenodd" clip-rule="evenodd" d="M0 3C0 2.44772 0.447715 2 1 2H10C10.5523 2 11 2.44772 11 3V8C11 8.55228 10.5523 9 10 9H1C0.447715 9 0 8.55228 0 8V3ZM7 4C7 3.72386 7.22386 3.5 7.5 3.5C7.77614 3.5 8 3.72386 8 4C8 4.27614 7.77614 4.5 7.5 4.5C7.22386 4.5 7 4.27614 7 4ZM3.5 3.5C3.22386 3.5 3 3.72386 3 4C3 4.27614 3.22386 4.5 3.5 4.5C3.77614 4.5 4 4.27614 4 4C4 3.72386 3.77614 3.5 3.5 3.5Z" fill="#1782FF"/>
</svg>
