<svg width="19" height="17" viewBox="0 0 19 17" fill="none" xmlns="http://www.w3.org/2000/svg">
<ellipse cx="9.7751" cy="8.5" rx="8.925" ry="8.5" fill="#D9D9D9"/>
<path d="M8.95421 10.906C8.95421 10.542 9.01487 10.2247 9.13621 9.954C9.25754 9.68333 9.40687 9.44067 9.58421 9.226C9.77087 9.01133 9.97154 8.81533 10.1862 8.638C10.4009 8.45133 10.6015 8.26933 10.7882 8.092C10.9749 7.90533 11.1242 7.70933 11.2362 7.504C11.3575 7.29867 11.4182 7.06067 11.4182 6.79C11.4182 6.342 11.2409 5.978 10.8862 5.698C10.5315 5.418 10.0415 5.278 9.41621 5.278C8.85621 5.278 8.37087 5.37133 7.96021 5.558C7.54954 5.74467 7.19954 6.02 6.91021 6.384L5.88821 5.656C6.28021 5.16133 6.77954 4.77867 7.38621 4.508C7.99287 4.228 8.70221 4.088 9.51421 4.088C10.1862 4.088 10.7695 4.19067 11.2642 4.396C11.7589 4.592 12.1415 4.87667 12.4122 5.25C12.6922 5.614 12.8322 6.05733 12.8322 6.58C12.8322 6.972 12.7715 7.308 12.6502 7.588C12.5289 7.868 12.3749 8.11533 12.1882 8.33C12.0015 8.54467 11.8009 8.74533 11.5862 8.932C11.3809 9.11867 11.1849 9.30533 10.9982 9.492C10.8115 9.67867 10.6575 9.884 10.5362 10.108C10.4149 10.332 10.3542 10.598 10.3542 10.906H8.95421ZM9.66821 14.084C9.40687 14.084 9.18754 13.9953 9.01021 13.818C8.84221 13.6407 8.75821 13.4307 8.75821 13.188C8.75821 12.9267 8.84221 12.712 9.01021 12.544C9.18754 12.376 9.40687 12.292 9.66821 12.292C9.92954 12.292 10.1442 12.376 10.3122 12.544C10.4802 12.712 10.5642 12.9267 10.5642 13.188C10.5642 13.4307 10.4802 13.6407 10.3122 13.818C10.1442 13.9953 9.92954 14.084 9.66821 14.084Z" fill="#606369"/>
</svg>
