<svg width="17" height="17" viewBox="0 0 17 17" fill="none" xmlns="http://www.w3.org/2000/svg">
<circle cx="8.5" cy="8.5" r="7.75" stroke="#1782FF" stroke-width="1.5"/>
<path d="M7.91008 10.216L7.62208 4.6H9.39808L9.09808 10.216H7.91008ZM8.51008 13.084C8.23008 13.084 7.99808 12.992 7.81408 12.808C7.63008 12.624 7.53808 12.404 7.53808 12.148C7.53808 11.892 7.63008 11.676 7.81408 11.5C7.99808 11.316 8.23008 11.224 8.51008 11.224C8.79008 11.224 9.01808 11.316 9.19408 11.5C9.37008 11.676 9.45808 11.892 9.45808 12.148C9.45808 12.404 9.37008 12.624 9.19408 12.808C9.01808 12.992 8.79008 13.084 8.51008 13.084Z" fill="#1782FF"/>
</svg>
