<svg width="277" height="31" viewBox="0 0 277 31" fill="none" xmlns="http://www.w3.org/2000/svg">
<path fill-rule="evenodd" clip-rule="evenodd" d="M145.469 0C142.707 0 140.469 2.23858 140.469 5V26C140.469 28.7614 142.707 31 145.469 31H271.094C273.855 31 276.094 28.7614 276.094 26V5C276.094 2.23858 273.855 0 271.094 0H145.469ZM159.435 24.61C160.666 25.078 162.001 25.312 163.439 25.312C164.861 25.312 166.169 25.078 167.365 24.61C168.579 24.142 169.627 23.492 170.511 22.66C171.413 21.8107 172.115 20.814 172.617 19.67C173.12 18.5087 173.371 17.252 173.371 15.9C173.371 14.5307 173.12 13.2827 172.617 12.156C172.115 11.012 171.413 10.0153 170.511 9.166C169.627 8.31667 168.579 7.658 167.365 7.19C166.169 6.722 164.852 6.488 163.413 6.488C161.992 6.488 160.675 6.722 159.461 7.19C158.248 7.658 157.191 8.31667 156.289 9.166C155.388 10.0153 154.686 11.012 154.183 12.156C153.698 13.3 153.455 14.548 153.455 15.9C153.455 17.252 153.698 18.5 154.183 19.644C154.686 20.788 155.379 21.7847 156.263 22.634C157.165 23.4833 158.222 24.142 159.435 24.61ZM165.649 21.308C164.973 21.5853 164.228 21.724 163.413 21.724C162.599 21.724 161.845 21.5853 161.151 21.308C160.458 21.0307 159.851 20.632 159.331 20.112C158.829 19.592 158.43 18.9767 158.135 18.266C157.858 17.538 157.719 16.7493 157.719 15.9C157.719 15.0333 157.858 14.2447 158.135 13.534C158.43 12.8233 158.837 12.208 159.357 11.688C159.877 11.168 160.475 10.7693 161.151 10.492C161.845 10.2147 162.599 10.076 163.413 10.076C164.228 10.076 164.982 10.2147 165.675 10.492C166.369 10.7693 166.967 11.168 167.469 11.688C167.989 12.208 168.388 12.8233 168.665 13.534C168.96 14.2447 169.107 15.0333 169.107 15.9C169.107 16.7667 168.96 17.5553 168.665 18.266C168.388 18.9767 167.989 19.592 167.469 20.112C166.949 20.632 166.343 21.0307 165.649 21.308ZM178.735 6.8H174.367L180.321 25H184.845L188.971 12.6683L192.983 25H197.507L203.461 6.8H199.431L195.19 19.688L191.033 6.8H187.133L182.841 19.593L178.735 6.8ZM209.296 6.8H205.812V25H209.972V13.9534L219.046 25H222.504V6.8H218.344V17.8416L209.296 6.8ZM230.996 17.408V21.62H240.902V25H226.81V6.8H240.564V10.18H230.996V14.132H239.446V17.408H230.996ZM252.132 6.8H244.254V25H248.466V19.93H252.132C252.198 19.93 252.264 19.9296 252.33 19.9287L255.824 25H260.374L256.308 19.1656C256.32 19.1604 256.332 19.1552 256.344 19.15C257.522 18.63 258.432 17.8847 259.074 16.914C259.715 15.926 260.036 14.756 260.036 13.404C260.036 12.0347 259.715 10.856 259.074 9.868C258.432 8.88 257.522 8.126 256.344 7.606C255.165 7.06867 253.761 6.8 252.132 6.8ZM248.466 16.576H251.898C253.198 16.576 254.168 16.2987 254.81 15.744C255.451 15.172 255.772 14.392 255.772 13.404C255.772 12.3987 255.451 11.6187 254.81 11.064C254.168 10.5093 253.198 10.232 251.898 10.232H248.466V16.576Z" fill="#1782FF"/>
<path d="M86.4405 0C87.4409 0 88.252 0.811643 88.252 1.81286V28.6206C88.252 28.6832 88.2013 28.7339 88.1387 28.7339H85.6752C84.6748 28.7339 83.8638 27.9223 83.8638 26.9211V0.113303C83.8638 0.0507277 83.9145 0 83.977 0H86.4405Z" fill="black"/>
<path d="M17.7452 15.373C18.3867 14.166 18.7075 12.8818 18.7075 11.5207C18.7075 10.0311 18.3482 8.003 17.6297 6.79594C16.9368 5.58888 15.8718 4.63864 14.4348 3.94522C13.0234 3.22613 11.2912 2.86658 9.23826 2.86658H0.113214C0.0506876 2.86658 0 2.9173 0 2.97988V6.56253C0 6.62511 0.0506877 6.67584 0.113214 6.67584H9.23826C12.5486 6.67584 14.2038 8.59293 14.2038 11.5207C14.2038 12.9075 13.7932 13.7596 12.9721 14.53C12.1509 15.2748 10.9063 15.8738 9.23826 15.8738H4.50139C4.43886 15.8738 4.38817 15.8231 4.38817 15.7605V7.14895C4.38817 7.07801 4.32377 7.02452 4.2541 7.03759L1.4776 7.55859C0.620844 7.71936 0 8.46803 0 9.3404V29.7277C0 29.7995 0.0658522 29.8532 0.136099 29.8387L2.94291 29.2589C3.78446 29.0851 4.38817 28.3434 4.38817 27.4835V20.023C4.38817 19.9604 4.43886 19.9097 4.50139 19.9097H9.23826C11.7707 19.9097 13.4689 19.3297 14.8275 18.4233C16.1861 17.5169 17.1036 16.5801 17.7452 15.373Z" fill="black"/>
<path d="M50.6063 11.0839C50.6063 11.199 50.7621 11.2432 50.8262 11.1476C51.4372 10.2359 52.2108 9.51727 53.1468 8.99176C54.1967 8.39136 55.4292 8.08338 56.8443 8.06783C56.9068 8.06714 56.9576 8.11793 56.9576 8.18051V12.4996C56.9576 12.5622 56.9069 12.6129 56.8444 12.6129H55.8413C54.1219 12.6129 52.8132 13.0495 51.915 13.9227C51.0425 14.7959 50.6063 16.3112 50.6063 18.4685V29.9804C50.6063 30.043 50.5556 30.0937 50.4931 30.0937H46.3313C46.2688 30.0937 46.2181 30.043 46.2181 29.9804V8.52722C46.2181 8.46464 46.2688 8.41391 46.3313 8.41391H50.4931C50.5556 8.41391 50.6063 8.46464 50.6063 8.52722V11.0839Z" fill="black"/>
<path d="M96.907 31C96.9695 31 97.0202 30.9493 97.0202 30.8867V4.07892C97.0202 3.07771 96.2092 2.26607 95.2088 2.26607H92.7452C92.6827 2.26607 92.632 2.3168 92.632 2.37937V29.1871C92.632 30.1884 93.443 31 94.4434 31H96.907Z" fill="black"/>
<path fill-rule="evenodd" clip-rule="evenodd" d="M121.319 18.3871C121.319 19.144 121.272 19.8313 121.18 20.4489C121.171 20.504 121.124 20.5444 121.068 20.5444H105.082C105.016 20.5444 104.964 20.6006 104.97 20.6663C105.118 22.3048 105.744 23.6253 106.846 24.6278C107.975 25.6551 109.36 26.1687 111.003 26.1687C113.338 26.1687 114.996 25.2011 115.975 23.2658C115.995 23.2273 116.034 23.2025 116.077 23.2025H120.585C120.662 23.2025 120.717 23.2779 120.691 23.3509C120.04 25.2358 118.889 26.7915 117.239 28.0179C115.571 29.2506 113.492 29.867 111.003 29.867C108.975 29.867 107.153 29.4175 105.537 28.5187C103.946 27.5941 102.688 26.31 101.764 24.6663C100.866 22.997 100.417 21.0708 100.417 18.8879C100.417 16.7049 100.854 14.7916 101.726 13.1479C102.624 11.4786 103.869 10.1945 105.46 9.29559C107.076 8.39672 108.924 7.94728 111.003 7.94728C113.004 7.94728 114.788 8.38388 116.353 9.25707C117.919 10.1303 119.138 11.363 120.01 12.9553C120.883 14.5219 121.319 16.3325 121.319 18.3871ZM116.623 17.0002C116.686 17.0002 116.737 16.9482 116.735 16.885C116.685 15.3206 116.108 14.062 115.006 13.1094C113.877 12.1335 112.478 11.6455 110.81 11.6455C109.296 11.6455 108 12.1335 106.923 13.1094C105.873 14.0349 105.237 15.2894 105.015 16.8729C105.005 16.9404 105.058 17.0002 105.126 17.0002H116.623Z" fill="black"/>
<path d="M128.731 29.867C128.793 29.867 128.844 29.8162 128.844 29.7537V2.94589C128.844 1.94468 128.033 1.13303 127.032 1.13303H124.569C124.506 1.13303 124.456 1.18376 124.456 1.24634V28.0541C124.456 29.0553 125.267 29.867 126.267 29.867H128.731Z" fill="black"/>
<path fill-rule="evenodd" clip-rule="evenodd" d="M31.2435 30.0936C33.5913 30.0936 35.7595 29.2915 37.5106 27.9355C37.5859 27.8771 37.6967 27.9303 37.6967 28.0256V29.9803C37.6967 30.0428 37.7474 30.0936 37.8099 30.0936H42.1121C42.1746 30.0936 42.2253 30.0428 42.2253 29.9803V8.22601C42.2253 8.16343 42.1746 8.1127 42.1121 8.1127H37.8099C37.7474 8.1127 37.6967 8.16343 37.6967 8.22601V10.1807C37.6967 10.276 37.5859 10.3291 37.5106 10.2708C35.7595 8.9148 33.5913 8.1127 31.2435 8.1127C25.4286 8.1127 20.7146 13.0333 20.7146 19.1031C20.7146 25.173 25.4286 30.0936 31.2435 30.0936ZM31.4699 25.788C35.159 25.788 37.9231 22.7951 37.9231 19.1031C37.9231 15.4112 35.159 12.4182 31.4699 12.4182C27.7809 12.4182 25.0167 15.4112 25.0167 19.1031C25.0167 22.7951 27.7809 25.788 31.4699 25.788Z" fill="black"/>
<path fill-rule="evenodd" clip-rule="evenodd" d="M68.8306 30.0936C71.1783 30.0936 73.3466 29.2915 75.0976 27.9355C75.1729 27.8771 75.2837 27.9303 75.2837 28.0256V29.9803C75.2837 30.0428 75.3344 30.0936 75.397 30.0936H79.6991C79.7616 30.0936 79.8123 30.0428 79.8123 29.9803V8.22601C79.8123 8.16343 79.7616 8.1127 79.6991 8.1127H75.397C75.3344 8.1127 75.2837 8.16343 75.2837 8.22601V10.1807C75.2837 10.276 75.1729 10.3291 75.0976 10.2708C73.3466 8.9148 71.1783 8.1127 68.8306 8.1127C63.0156 8.1127 58.3017 13.0333 58.3017 19.1031C58.3017 25.173 63.0156 30.0936 68.8306 30.0936ZM69.057 25.788C72.746 25.788 75.7366 22.7951 75.7366 19.1031C75.7366 15.4112 72.746 12.4182 69.057 12.4182C65.3679 12.4182 62.6038 15.4112 62.6038 19.1031C62.6038 22.7951 65.3679 25.788 69.057 25.788Z" fill="black"/>
</svg>
